<?xml version="1.0" encoding="iso-8859-1"?>
<!-- Generator: Adobe Illustrator 18.1.1, SVG Export Plug-In . SVG Version: 6.00 Build 0)  -->
<svg xmlns="http://www.w3.org/2000/svg" xmlns:xlink="http://www.w3.org/1999/xlink" version="1.1" id="Capa_1" x="0px" y="0px" viewBox="0 0 297.789 297.789" style="enable-background:new 0 0 297.789 297.789;" xml:space="preserve" width="512px" height="512px">
<g>
	<g>
		<path d="M148.894,177.901c-5.934,0-11.547,1.349-16.605,3.704l52.498,52.34    c2.322-5.031,3.65-10.606,3.65-16.497C188.442,195.643,170.7,177.901,148.894,177.901z" fill="#777777"/>
		<path d="M159.071,0h-20.353c-36.045,0-65.269,29.224-65.269,65.269v210.764    c0,12.015,9.741,21.756,21.756,21.756h107.378c12.015,0,21.756-9.741,21.756-21.756V65.269C224.34,29.224,195.121,0,159.071,0z     M149.814,31.275c24.149,0,43.73,19.581,43.73,43.73s-19.581,43.73-43.73,43.73s-43.73-19.581-43.73-43.73    S125.664,31.275,149.814,31.275z M148.894,278.752c-33.858,0-61.304-27.446-61.304-61.304s27.446-61.304,61.304-61.304    s61.304,27.446,61.304,61.304S182.753,278.752,148.894,278.752z" fill="#777777"/>
		<path d="M109.347,217.448c0,21.805,17.742,39.547,39.547,39.547c5.983,0,11.634-1.376,16.725-3.758    l-52.563-52.4C110.701,205.896,109.347,211.509,109.347,217.448z" fill="#777777"/>
	</g>
</g>
<g>
</g>
<g>
</g>
<g>
</g>
<g>
</g>
<g>
</g>
<g>
</g>
<g>
</g>
<g>
</g>
<g>
</g>
<g>
</g>
<g>
</g>
<g>
</g>
<g>
</g>
<g>
</g>
<g>
</g>
</svg>
