<?xml version="1.0" encoding="utf-8"?>
<!-- Generator: Adobe Illustrator 19.0.1, SVG Export Plug-In . SVG Version: 6.00 Build 0)  -->
<svg version="1.1" id="Layer_1" xmlns="http://www.w3.org/2000/svg" xmlns:xlink="http://www.w3.org/1999/xlink" x="0px" y="0px"
	 viewBox="0 0 48 48" style="enable-background:new 0 0 48 48;" xml:space="preserve">
<style type="text/css">
	.st0{fill:#221F1F;}
	.st1{fill:#FFFFFF;}
</style>
<g>
	<g>
		<path class="st0" d="M43.8,45.2H4.2c-0.6,0-1-0.4-1-1V1.5c0-0.6,0.4-1,1-1h39.5c0.6,0,1,0.4,1,1v42.7
			C44.8,44.7,44.3,45.2,43.8,45.2z M5.2,43.2h37.5V2.5H5.2V43.2z"/>
	</g>
	<g>
		<g>
			<path class="st0" d="M9.2,47.5c-0.6,0-1-0.4-1-1v-2.3c0-0.6,0.4-1,1-1s1,0.4,1,1v2.3C10.2,47.1,9.8,47.5,9.2,47.5z"/>
		</g>
		<g>
			<path class="st0" d="M38.8,47.5c-0.6,0-1-0.4-1-1v-2.3c0-0.6,0.4-1,1-1s1,0.4,1,1v2.3C39.8,47.1,39.3,47.5,38.8,47.5z"/>
		</g>
	</g>
	<g>
		<path class="st0" d="M24,39.6c-6.8,0-12.3-5.5-12.3-12.3S17.2,15,24,15s12.3,5.5,12.3,12.3S30.8,39.6,24,39.6z M24,17
			c-5.7,0-10.3,4.6-10.3,10.3S18.3,37.6,24,37.6S34.3,33,34.3,27.3S29.7,17,24,17z"/>
	</g>
	<g>
		<path class="st0" d="M43.8,11.4H4.2c-0.6,0-1-0.4-1-1s0.4-1,1-1h39.5c0.6,0,1,0.4,1,1S44.3,11.4,43.8,11.4z"/>
	</g>
	<g>
		<g>
			<path class="st0" d="M33.4,7.6c-0.6,0-1-0.4-1-1V5.3c0-0.6,0.4-1,1-1s1,0.4,1,1v1.4C34.4,7.2,34,7.6,33.4,7.6z"/>
		</g>
		<g>
			<path class="st0" d="M38.2,7.6c-0.6,0-1-0.4-1-1V5.3c0-0.6,0.4-1,1-1s1,0.4,1,1v1.4C39.2,7.2,38.7,7.6,38.2,7.6z"/>
		</g>
	</g>
</g>
</svg>
