<svg xmlns:x="http://ns.adobe.com/Extensibility/1.0/" xmlns:i="http://ns.adobe.com/AdobeIllustrator/10.0/" xmlns:graph="http://ns.adobe.com/Graphs/1.0/" xmlns="http://www.w3.org/2000/svg" xmlns:xlink="http://www.w3.org/1999/xlink" version="1.1" x="0px" y="0px" viewBox="0 0 100 125" enable-background="new 0 0 100 100" xml:space="preserve"><metadata><sfw xmlns="http://ns.adobe.com/SaveForWeb/1.0/"><slices/><sliceSourceBounds y="16.939" x="7.266" width="86.623" height="65.56" bottomLeftOrigin="true"/><optimizationSettings><targetSettings targetSettingsID="0" fileFormat="GIFFormat"><GIFFormat transparency="true" lossy="0" matteColor="#FFFFFF" interlaced="false" noMatteColor="false" webShiftPercent="0" includeCaption="false" reductionAlgorithm="selective" ditherAlgorithm="diffusion" ditherPercent="100" numColors="256" rolloverMasterPalette="false" autoReduce="false"><colorTable isExact="false"/><lockedColors/><colorShiftEntries/></GIFFormat></targetSettings></optimizationSettings></sfw></metadata><g><path d="M79.55,80.061H17.82c-0.829,0-1.5,0.672-1.5,1.5s0.671,1.5,1.5,1.5h61.73c0.828,0,1.5-0.672,1.5-1.5   S80.378,80.061,79.55,80.061z"/><path d="M93.453,30.847c-1.915-4.806-8.575-5.137-8.857-5.149c-1.6-0.068-15.13,4.79-15.13,4.79   c-0.858,0.343-2.622,0.319-3.471-0.046L37.172,18.049c-0.822-0.354-1.889-0.548-3.003-0.548c-0.722,0-1.787,0.082-2.764,0.471   l-2.524,1.006c-1.125,0.449-1.849,1.283-1.986,2.289c-0.138,1.006,0.336,2.004,1.299,2.739l19.764,15.057l-16.72,6.665   c-0.859,0.342-2.621,0.319-3.47-0.046l-5.432-2.336c-0.822-0.354-1.889-0.548-3.004-0.548c-0.721,0-1.786,0.082-2.763,0.471   l-7.302,2.911c-1.13,0.451-1.852,1.286-1.98,2.292c-0.128,1.006,0.361,1.995,1.342,2.715l15.534,11.395   c0.945,0.694,2.326,1.108,3.693,1.108c0,0,0,0,0,0c0.756,0,1.479-0.129,2.088-0.371c0,0,58.51-23.467,59.765-24.142   C91.722,38.095,95.094,34.962,93.453,30.847z M84.24,28.691l0.228,0.004c0.027,0.001,1.54,0.084,3.093,0.655l-5.451,2.174   l-0.955-2.396C82.13,28.872,83.349,28.691,84.24,28.691z M88.289,36.534c-1.152,0.62-3.153,1.552-4.37,2.037l-55.086,21.96   c-0.255,0.102-0.603,0.158-0.977,0.158c-0.729,0-1.482-0.207-1.918-0.527L10.569,48.889l7.111-2.834   c0.858-0.343,2.621-0.318,3.47,0.046l5.432,2.336c0.822,0.354,1.889,0.549,3.004,0.548c0.721,0,1.787-0.082,2.763-0.471   l16.859-6.721c1.125-0.449,1.849-1.283,1.987-2.289c0.137-1.006-0.336-2.004-1.3-2.739L30.131,21.709l2.385-0.95   c0.858-0.343,2.62-0.319,3.471,0.046l28.823,12.394c0.822,0.354,1.889,0.548,3.003,0.548c0.722,0,1.787-0.082,2.764-0.471   l8.695-3.466l1.35,3.385c0.156,0.391,0.531,0.63,0.929,0.63c0.124,0,0.249-0.023,0.37-0.072l7.167-2.857   c0.212-0.084,0.365-0.242,0.474-0.424c0.472,0.4,0.865,0.887,1.104,1.487C91.726,34.614,88.425,36.46,88.289,36.534z"/><path d="M35.785,49.991l-2.389,0.953c-0.513,0.204-0.763,0.786-0.558,1.299c0.156,0.392,0.532,0.63,0.929,0.63   c0.123,0,0.249-0.022,0.37-0.071l2.389-0.953c0.513-0.204,0.763-0.786,0.558-1.299C36.879,50.036,36.3,49.788,35.785,49.991z"/><path d="M42.953,47.134l-2.389,0.952c-0.513,0.204-0.763,0.786-0.559,1.299c0.156,0.392,0.532,0.63,0.929,0.63   c0.123,0,0.249-0.023,0.37-0.072l2.389-0.952c0.513-0.204,0.763-0.786,0.559-1.299C44.047,47.179,43.465,46.927,42.953,47.134z"/><path d="M50.121,44.277l-2.389,0.951c-0.513,0.205-0.763,0.786-0.559,1.299c0.156,0.392,0.532,0.63,0.93,0.63   c0.123,0,0.248-0.023,0.37-0.071l2.389-0.951c0.513-0.205,0.763-0.786,0.559-1.299S50.634,44.072,50.121,44.277z"/><path d="M57.288,41.418l-2.39,0.952c-0.513,0.205-0.764,0.786-0.559,1.299c0.156,0.392,0.531,0.63,0.929,0.63   c0.123,0,0.249-0.023,0.37-0.071l2.39-0.952c0.513-0.205,0.764-0.786,0.559-1.299C58.383,41.465,57.8,41.214,57.288,41.418z"/><path d="M64.456,38.562l-2.39,0.952c-0.513,0.205-0.764,0.786-0.559,1.299c0.156,0.392,0.531,0.63,0.929,0.63   c0.123,0,0.249-0.023,0.37-0.071l2.39-0.952c0.513-0.205,0.764-0.786,0.559-1.299C65.55,38.608,64.969,38.357,64.456,38.562z"/><path d="M71.624,35.705l-2.39,0.952c-0.513,0.205-0.764,0.786-0.559,1.299c0.156,0.392,0.531,0.63,0.929,0.63   c0.123,0,0.249-0.023,0.37-0.071l2.39-0.952c0.513-0.205,0.764-0.786,0.559-1.299S72.137,35.5,71.624,35.705z"/></g><text x="0" y="115" fill="#000000" font-size="5px" font-weight="bold" font-family="'Helvetica Neue', Helvetica, Arial-Unicode, Arial, Sans-serif">Created by Ralf Schmitzer</text><text x="0" y="120" fill="#000000" font-size="5px" font-weight="bold" font-family="'Helvetica Neue', Helvetica, Arial-Unicode, Arial, Sans-serif">from the Noun Project</text></svg>