<svg xmlns="http://www.w3.org/2000/svg" xmlns:xlink="http://www.w3.org/1999/xlink" version="1.1" x="0px" y="0px" viewBox="0 0 48 60" style="enable-background:new 0 0 48 48;" xml:space="preserve"><style type="text/css">
	.st0{fill:#221F1F;}
	.st1{fill:#FFFFFF;}
</style><g><g><g><path class="st0" d="M6.1,20.5H4.2c-2,0-3.7-1.6-3.7-3.7v-5.3c0-0.6,0.4-1,1-1s1,0.4,1,1v5.3c0,0.9,0.7,1.7,1.7,1.7h1.9     c0.9,0,1.7-0.7,1.7-1.7v-5.3c0-0.6,0.4-1,1-1s1,0.4,1,1v5.3C9.7,18.8,8.1,20.5,6.1,20.5z"/></g><g><path class="st0" d="M5.1,20.5c-0.6,0-1-0.4-1-1v-8c0-0.6,0.4-1,1-1s1,0.4,1,1v8C6.1,20,5.7,20.5,5.1,20.5z"/></g><g><path class="st0" d="M5.1,37.9c-0.6,0-1-0.4-1-1V19.9c0-0.6,0.4-1,1-1s1,0.4,1,1v16.9C6.1,37.4,5.7,37.9,5.1,37.9z"/></g></g><g><path class="st0" d="M43.4,37.9c-0.6,0-1-0.4-1-1V11.5c0-0.3,0.1-0.5,0.3-0.7s0.4-0.3,0.7-0.3c0.8,0,1.4,0.7,1.8,1.4    c2.4,3.4,2.9,7.9,1.5,12c-0.6,1.7-1.4,2.8-2.3,3.3v9.7C44.4,37.4,43.9,37.9,43.4,37.9z M44.4,14.4v9.8c0.1-0.3,0.3-0.6,0.5-1.1    C45.9,20.2,45.7,17.1,44.4,14.4z"/></g><g><path class="st0" d="M25.4,39.2c-8.4,0-15.2-6.8-15.2-15.2S17,8.8,25.4,8.8S40.6,15.6,40.6,24S33.8,39.2,25.4,39.2z M25.4,10.8    c-7.3,0-13.2,5.9-13.2,13.2c0,7.3,5.9,13.2,13.2,13.2S38.6,31.3,38.6,24C38.6,16.7,32.7,10.8,25.4,10.8z"/></g></g><text x="0" y="63" fill="#000000" font-size="5px" font-weight="bold" font-family="'Helvetica Neue', Helvetica, Arial-Unicode, Arial, Sans-serif">Created by Vectors Market</text><text x="0" y="68" fill="#000000" font-size="5px" font-weight="bold" font-family="'Helvetica Neue', Helvetica, Arial-Unicode, Arial, Sans-serif">from the Noun Project</text></svg>
