<svg xmlns="http://www.w3.org/2000/svg" xmlns:xlink="http://www.w3.org/1999/xlink" version="1.1" x="0px" y="0px" viewBox="0 0 48 60" style="enable-background:new 0 0 48 48;" xml:space="preserve"><style type="text/css">
	.st0{fill:#221F1F;}
	.st1{fill:#FFFFFF;}
</style><g><g><path class="st0" d="M22.6,39C12.2,39,3.7,30.5,3.7,20.1c0-0.6,0.4-1,1-1h35.8c0.6,0,1,0.4,1,1C41.6,30.5,33.1,39,22.6,39z     M5.7,21.1C6.3,29.9,13.6,37,22.6,37S39,29.9,39.5,21.1H5.7z"/></g><g><path class="st0" d="M42.9,44H2.4c-0.6,0-1-0.4-1-1s0.4-1,1-1h40.5c0.6,0,1,0.4,1,1S43.4,44,42.9,44z"/></g><g><g><path class="st0" d="M16.6,16.5c-0.6,0-1-0.4-1-1V9.2c0-0.6,0.4-1,1-1s1,0.4,1,1v6.2C17.6,16,17.2,16.5,16.6,16.5z"/></g><g><path class="st0" d="M22.6,16.5c-0.6,0-1-0.4-1-1V5c0-0.6,0.4-1,1-1s1,0.4,1,1v10.5C23.6,16,23.2,16.5,22.6,16.5z"/></g><g><path class="st0" d="M28.6,16.5c-0.6,0-1-0.4-1-1V9.2c0-0.6,0.4-1,1-1s1,0.4,1,1v6.2C29.6,16,29.2,16.5,28.6,16.5z"/></g></g><g><path class="st0" d="M37.6,31c-0.5,0-0.9-0.3-1-0.8c-0.1-0.5,0.2-1.1,0.8-1.2l3.5-0.7c2.1-0.4,3.7-2.2,3.8-4.2    c0.1-1.1-0.4-1.4-0.5-1.6c-0.8-0.6-2.5-0.3-3.3-0.1c-0.5,0.2-1.1-0.1-1.3-0.6c-0.2-0.5,0.1-1.1,0.7-1.3c0.3-0.1,3.3-1,5.1,0.4    c0.6,0.5,1.4,1.4,1.3,3.2c-0.1,3-2.3,5.5-5.4,6.1l-3.5,0.7C37.7,31,37.6,31,37.6,31z"/></g></g><text x="0" y="63" fill="#000000" font-size="5px" font-weight="bold" font-family="'Helvetica Neue', Helvetica, Arial-Unicode, Arial, Sans-serif">Created by Vectors Market</text><text x="0" y="68" fill="#000000" font-size="5px" font-weight="bold" font-family="'Helvetica Neue', Helvetica, Arial-Unicode, Arial, Sans-serif">from the Noun Project</text></svg>