<svg xmlns="http://www.w3.org/2000/svg" xmlns:xlink="http://www.w3.org/1999/xlink" version="1.1" x="0px" y="0px" viewBox="0 0 48 60" style="enable-background:new 0 0 48 48;" xml:space="preserve"><style type="text/css">
	.st0{fill:#231F20;}
	.st1{fill:none;stroke:#231F20;stroke-width:2;stroke-linecap:round;stroke-linejoin:round;stroke-miterlimit:10;}
</style><g><g><path class="st0" d="M46.5,25.1C46.5,25.1,46.5,25.1,46.5,25.1l-45-0.2c-0.6,0-1-0.5-1-1c0-0.6,0.5-1,1-1c0,0,0,0,0,0l45,0.2    c0.6,0,1,0.5,1,1C47.5,24.7,47,25.1,46.5,25.1z"/></g><g><g><g><path class="st0" d="M4,28.9C4,28.9,4,28.9,4,28.9c-0.6,0-1-0.5-1-1l0-8c0-0.6,0.5-1,1-1c0,0,0,0,0,0c0.6,0,1,0.5,1,1l0,8      C5,28.5,4.6,28.9,4,28.9z"/></g><g><path class="st0" d="M8.8,31C8.8,31,8.8,31,8.8,31c-0.6,0-1-0.5-1-1l0.1-12.2c0-0.6,0.5-1,1-1c0,0,0,0,0,0c0.6,0,1,0.5,1,1      L9.8,30.1C9.8,30.6,9.3,31,8.8,31z"/></g><g><path class="st0" d="M13.5,34.3C13.5,34.3,13.5,34.3,13.5,34.3c-0.6,0-1-0.5-1-1l0.1-18.7c0-0.6,0.5-1,1-1c0,0,0,0,0,0      c0.6,0,1,0.5,1,1l-0.1,18.7C14.5,33.9,14.1,34.3,13.5,34.3z"/></g></g><g><g><path class="st0" d="M43.9,29.1C43.9,29.1,43.9,29.1,43.9,29.1c-0.6,0-1-0.5-1-1l0-8c0-0.6,0.5-1,1-1c0,0,0,0,0,0      c0.6,0,1,0.5,1,1l0,8C44.9,28.7,44.5,29.1,43.9,29.1z"/></g><g><path class="st0" d="M39.1,31.2C39.1,31.2,39.1,31.2,39.1,31.2c-0.6,0-1-0.5-1-1l0.1-12.2c0-0.6,0.5-1,1-1c0,0,0,0,0,0      c0.6,0,1,0.5,1,1l-0.1,12.2C40.1,30.8,39.7,31.2,39.1,31.2z"/></g><g><path class="st0" d="M34.4,34.4C34.4,34.4,34.4,34.4,34.4,34.4c-0.6,0-1-0.5-1-1l0.1-18.7c0-0.6,0.5-1,1-1c0,0,0,0,0,0      c0.6,0,1,0.5,1,1l-0.1,18.7C35.4,34,34.9,34.4,34.4,34.4z"/></g></g></g></g><text x="0" y="63" fill="#000000" font-size="5px" font-weight="bold" font-family="'Helvetica Neue', Helvetica, Arial-Unicode, Arial, Sans-serif">Created by Vectors Market</text><text x="0" y="68" fill="#000000" font-size="5px" font-weight="bold" font-family="'Helvetica Neue', Helvetica, Arial-Unicode, Arial, Sans-serif">from the Noun Project</text></svg>