<svg xmlns="http://www.w3.org/2000/svg" xmlns:xlink="http://www.w3.org/1999/xlink" version="1.1" x="0px" y="0px" viewBox="0 0 48 60" style="enable-background:new 0 0 48 48;" xml:space="preserve"><style type="text/css">
	.st0{fill:#221F1F;}
	.st1{fill:#FFFFFF;}
</style><g><g><g><path class="st0" d="M45,32.3H3c-2.1,0-2.5-1.1-2.5-1.8V17.4c0-0.7,0.3-1.8,2.5-1.8H45c2.1,0,2.5,1.1,2.5,1.8v13.1     C47.5,31.2,47.2,32.3,45,32.3z M2.5,30.3c0.1,0,0.3,0,0.5,0H45c0.2,0,0.3,0,0.5,0V17.7c-0.1,0-0.3,0-0.5,0H3c-0.2,0-0.3,0-0.5,0     V30.3z"/></g><g><path class="st0" d="M37.6,28.4H10.4c-0.6,0-1-0.4-1-1s0.4-1,1-1h27.2c0.6,0,1,0.4,1,1S38.1,28.4,37.6,28.4z"/></g></g><g><path class="st0" d="M41.4,25.8c-0.6,0-1-0.4-1-1v-1.6c0-0.6,0.4-1,1-1s1,0.4,1,1v1.6C42.4,25.4,42,25.8,41.4,25.8z"/></g></g><text x="0" y="63" fill="#000000" font-size="5px" font-weight="bold" font-family="'Helvetica Neue', Helvetica, Arial-Unicode, Arial, Sans-serif">Created by Vectors Market</text><text x="0" y="68" fill="#000000" font-size="5px" font-weight="bold" font-family="'Helvetica Neue', Helvetica, Arial-Unicode, Arial, Sans-serif">from the Noun Project</text></svg>