<svg xmlns="http://www.w3.org/2000/svg" xmlns:xlink="http://www.w3.org/1999/xlink" version="1.1" x="0px" y="0px" viewBox="0 0 48 60" style="enable-background:new 0 0 48 48;" xml:space="preserve"><style type="text/css">
	.st0{fill:#221F1F;}
	.st1{fill:#FFFFFF;}
</style><g><g><path class="st0" d="M46.5,13.3h-45c-0.3,0-0.7-0.2-0.9-0.5c-0.2-0.3-0.2-0.7,0-1l4.9-9.3C5.6,2.1,6,1.9,6.4,1.9h35.3    c0.4,0,0.7,0.2,0.9,0.5l4.9,9.3c0.2,0.3,0.1,0.7,0,1C47.2,13.1,46.8,13.3,46.5,13.3z M3.1,11.3h41.7L41,3.9H7L3.1,11.3z"/></g><g><path class="st0" d="M41.7,46.1H6.4c-0.6,0-1-0.4-1-1V12.3c0-0.6,0.4-1,1-1h35.3c0.6,0,1,0.4,1,1v32.8    C42.7,45.6,42.2,46.1,41.7,46.1z M7.4,44.1h33.3V13.3H7.4V44.1z"/></g><g><path class="st0" d="M37.5,46.1H26.2c-0.6,0-1-0.4-1-1v-21c0-0.6,0.4-1,1-1h11.3c0.6,0,1,0.4,1,1v21C38.5,45.6,38,46.1,37.5,46.1z     M27.2,44.1h9.3v-19h-9.3V44.1z"/></g><g><path class="st0" d="M28.7,35.7c-0.6,0-1-0.4-1-1v-0.3c0-0.6,0.4-1,1-1s1,0.4,1,1v0.3C29.7,35.3,29.2,35.7,28.7,35.7z"/></g><g><path class="st0" d="M21.4,40H11.1c-0.6,0-1-0.4-1-1v-8.7c0-0.6,0.4-1,1-1h10.3c0.6,0,1,0.4,1,1V39C22.4,39.5,22,40,21.4,40z     M12.1,38h8.3v-6.7h-8.3V38z"/></g><g><g><path class="st0" d="M16.6,23.6v-2c-0.6-0.2-1.1-0.4-1.4-0.8c-0.3-0.4-0.4-0.8-0.4-1.3c0-0.5,0.2-0.9,0.5-1.3     c0.3-0.3,0.8-0.6,1.3-0.6v-0.5h0.7v0.5c0.5,0.1,0.9,0.2,1.2,0.5c0.3,0.3,0.5,0.7,0.6,1.1l-1.2,0.2c-0.1-0.4-0.3-0.6-0.6-0.8v1.8     c0.8,0.2,1.3,0.5,1.5,0.8c0.3,0.3,0.4,0.7,0.4,1.2c0,0.6-0.2,1-0.5,1.4c-0.3,0.4-0.8,0.6-1.4,0.7v0.9h-0.7v-0.9     c-0.5-0.1-1-0.3-1.3-0.6c-0.3-0.3-0.6-0.8-0.6-1.4l1.2-0.1c0.1,0.3,0.1,0.5,0.3,0.6C16.3,23.4,16.5,23.5,16.6,23.6z M16.6,18.6     c-0.2,0.1-0.3,0.2-0.4,0.3c-0.1,0.2-0.2,0.3-0.2,0.5c0,0.2,0.1,0.3,0.2,0.5c0.1,0.1,0.3,0.3,0.5,0.3V18.6z M17.3,23.6     c0.2,0,0.4-0.2,0.6-0.3c0.1-0.2,0.2-0.4,0.2-0.6c0-0.2-0.1-0.4-0.2-0.5c-0.1-0.2-0.3-0.3-0.6-0.4V23.6z"/></g></g></g><text x="0" y="63" fill="#000000" font-size="5px" font-weight="bold" font-family="'Helvetica Neue', Helvetica, Arial-Unicode, Arial, Sans-serif">Created by Vectors Market</text><text x="0" y="68" fill="#000000" font-size="5px" font-weight="bold" font-family="'Helvetica Neue', Helvetica, Arial-Unicode, Arial, Sans-serif">from the Noun Project</text></svg>