<svg xmlns="http://www.w3.org/2000/svg" xmlns:xlink="http://www.w3.org/1999/xlink" version="1.1" x="0px" y="0px" viewBox="0 0 48 60" style="enable-background:new 0 0 48 48;" xml:space="preserve"><style type="text/css">
	.st0{fill:#231F20;}
	.st1{fill:none;stroke:#231F20;stroke-width:2;stroke-linecap:round;stroke-linejoin:round;stroke-miterlimit:10;}
</style><g><g><g><path class="st0" d="M12.5,24.5c-3.1,0-6.1-1.2-8.5-3.5C-0.7,16.3-0.7,8.7,4,4c4.7-4.7,12.3-4.7,17,0l0,0c4.7,4.7,4.7,12.3,0,17     C18.6,23.3,15.6,24.5,12.5,24.5z M12.5,2.5c-2.6,0-5.1,1-7.1,2.9c-3.9,3.9-3.9,10.2,0,14.1c3.9,3.9,10.2,3.9,14.1,0     c3.9-3.9,3.9-10.2,0-14.1C17.6,3.5,15.1,2.5,12.5,2.5z"/></g><g><path class="st0" d="M46.5,47.5c-0.3,0-0.5-0.1-0.7-0.3L19.9,21.3c-0.4-0.4-0.4-1,0-1.4s1-0.4,1.4,0l25.9,25.9     c0.4,0.4,0.4,1,0,1.4C47,47.4,46.8,47.5,46.5,47.5z"/></g></g><g><path class="st0" d="M2.6,23.4c-0.3,0-0.5-0.1-0.7-0.3c-0.4-0.4-0.4-1,0-1.4L21.7,1.9c0.4-0.4,1-0.4,1.4,0s0.4,1,0,1.4L3.3,23.1    C3.1,23.3,2.9,23.4,2.6,23.4z"/></g></g><text x="0" y="63" fill="#000000" font-size="5px" font-weight="bold" font-family="'Helvetica Neue', Helvetica, Arial-Unicode, Arial, Sans-serif">Created by Vectors Market</text><text x="0" y="68" fill="#000000" font-size="5px" font-weight="bold" font-family="'Helvetica Neue', Helvetica, Arial-Unicode, Arial, Sans-serif">from the Noun Project</text></svg>