<svg xmlns="http://www.w3.org/2000/svg" xmlns:xlink="http://www.w3.org/1999/xlink" version="1.1" x="0px" y="0px" viewBox="0 0 48 60" style="enable-background:new 0 0 48 48;" xml:space="preserve"><style type="text/css">
	.st0{fill:#221F1F;}
	.st1{fill:#FFFFFF;}
</style><g><g><path class="st0" d="M24,43.7c-0.6,0-1-0.4-1-1V22.4c0-0.6,0.4-1,1-1s1,0.4,1,1v20.3C25,43.2,24.6,43.7,24,43.7z"/></g><g><path class="st0" d="M30.9,43.7H17.1c-0.6,0-1-0.4-1-1s0.4-1,1-1h13.8c0.6,0,1,0.4,1,1S31.5,43.7,30.9,43.7z"/></g><g><path class="st0" d="M24,23.4c-0.3,0-0.5-0.1-0.7-0.3L6.3,6C6,5.8,5.9,5.3,6,4.9C6.2,4.6,6.6,4.3,7,4.3H41c0.4,0,0.8,0.2,0.9,0.6    C42.1,5.3,42,5.8,41.7,6l-17,17C24.5,23.3,24.3,23.4,24,23.4z M9.4,6.3L24,21L38.6,6.3H9.4z"/></g></g><text x="0" y="63" fill="#000000" font-size="5px" font-weight="bold" font-family="'Helvetica Neue', Helvetica, Arial-Unicode, Arial, Sans-serif">Created by Vectors Market</text><text x="0" y="68" fill="#000000" font-size="5px" font-weight="bold" font-family="'Helvetica Neue', Helvetica, Arial-Unicode, Arial, Sans-serif">from the Noun Project</text></svg>