<svg xmlns="http://www.w3.org/2000/svg" xmlns:xlink="http://www.w3.org/1999/xlink" version="1.1" x="0px" y="0px" viewBox="0 0 48 60" style="enable-background:new 0 0 48 48;" xml:space="preserve"><style type="text/css">
	.st0{fill:#221F1F;}
	.st1{fill:#FFFFFF;}
</style><g><g><g><path class="st0" d="M33.3,43.5H14.7c-7.8,0-14.2-6.4-14.2-14.2V29c0-0.6,0.4-1,1-1h45c0.6,0,1,0.4,1,1v0.3     C47.5,37.2,41.1,43.5,33.3,43.5z M2.5,30c0.4,6.4,5.7,11.5,12.2,11.5h18.6c6.5,0,11.8-5.1,12.2-11.5H2.5z"/></g><g><g><path class="st0" d="M7.4,45.5c-0.1,0-0.3,0-0.4-0.1c-0.5-0.2-0.7-0.8-0.5-1.3l1.4-3c0.2-0.5,0.8-0.7,1.3-0.5      c0.5,0.2,0.7,0.8,0.5,1.3l-1.4,3C8.1,45.3,7.8,45.5,7.4,45.5z"/></g><g><path class="st0" d="M40.6,45.5c-0.4,0-0.7-0.2-0.9-0.6l-1.4-3c-0.2-0.5,0-1.1,0.5-1.3c0.5-0.2,1.1,0,1.3,0.5l1.4,3      c0.2,0.5,0,1.1-0.5,1.3C40.9,45.4,40.7,45.5,40.6,45.5z"/></g></g><g><path class="st0" d="M43.7,30c-0.6,0-1-0.4-1-1V4.5h-10V7c0,0.6-0.4,1-1,1s-1-0.4-1-1V3.5c0-0.6,0.4-1,1-1h12c0.6,0,1,0.4,1,1V29     C44.7,29.6,44.2,30,43.7,30z"/></g><g><path class="st0" d="M35.7,12h-8c-0.6,0-1-0.4-1-1v-0.9c0-2,1.6-3.6,3.6-3.6h2.8c2,0,3.6,1.6,3.6,3.6V11     C36.7,11.6,36.2,12,35.7,12z M28.7,10h6c-0.1-0.8-0.8-1.5-1.6-1.5h-2.8C29.4,8.5,28.7,9.2,28.7,10z"/></g></g><g><path class="st0" d="M45.3,34.6H2.7c-0.6,0-1-0.4-1-1s0.4-1,1-1h42.6c0.6,0,1,0.4,1,1S45.8,34.6,45.3,34.6z"/></g></g><text x="0" y="63" fill="#000000" font-size="5px" font-weight="bold" font-family="'Helvetica Neue', Helvetica, Arial-Unicode, Arial, Sans-serif">Created by Vectors Market</text><text x="0" y="68" fill="#000000" font-size="5px" font-weight="bold" font-family="'Helvetica Neue', Helvetica, Arial-Unicode, Arial, Sans-serif">from the Noun Project</text></svg>