<svg xmlns="http://www.w3.org/2000/svg" xmlns:xlink="http://www.w3.org/1999/xlink" version="1.1" x="0px" y="0px" viewBox="0 0 48 60" style="enable-background:new 0 0 48 48;" xml:space="preserve"><style type="text/css">
	.st0{fill:#221F1F;}
	.st1{fill:#FFFFFF;}
</style><g><g><path class="st0" d="M46,40.3H2c-0.6,0-1-0.4-1-1V29c0-0.6,0.4-1,1-1H46c0.6,0,1,0.4,1,1v10.3C47,39.8,46.5,40.3,46,40.3z M3,38.3    H45V30H3V38.3z"/></g><g><path class="st0" d="M38.7,15.9h-3.8c-0.6,0-1-0.4-1-1s0.4-1,1-1h2.8V5.7H10.3v8.2h2.5c0.6,0,1,0.4,1,1s-0.4,1-1,1H9.3    c-0.6,0-1-0.4-1-1V4.7c0-0.6,0.4-1,1-1h29.3c0.6,0,1,0.4,1,1v10.2C39.7,15.5,39.2,15.9,38.7,15.9z"/></g><g><path class="st0" d="M26.6,15.9h-5.2c-0.6,0-1-0.4-1-1s0.4-1,1-1h5.2c0.6,0,1,0.4,1,1S27.1,15.9,26.6,15.9z"/></g><g><path class="st0" d="M46,30H2c-0.3,0-0.7-0.2-0.9-0.5c-0.2-0.3-0.2-0.7,0-1l7.3-14.1c0.3-0.5,0.9-0.7,1.3-0.4    c0.5,0.3,0.7,0.9,0.4,1.3L3.7,28h40.6l-6.5-12.6c-0.3-0.5-0.1-1.1,0.4-1.3c0.5-0.3,1.1-0.1,1.3,0.4l7.3,14.1c0.2,0.3,0.1,0.7,0,1    C46.6,29.9,46.3,30,46,30z"/></g><g><g><path class="st0" d="M8.4,44.3c-0.6,0-1-0.4-1-1v-4c0-0.6,0.4-1,1-1s1,0.4,1,1v4C9.4,43.9,9,44.3,8.4,44.3z"/></g><g><path class="st0" d="M39.6,44.3c-0.6,0-1-0.4-1-1v-4c0-0.6,0.4-1,1-1s1,0.4,1,1v4C40.6,43.9,40.1,44.3,39.6,44.3z"/></g></g><g><path class="st0" d="M21.4,18.2h-7.9c-0.6,0-1-0.4-1-1v-4.5c0-0.6,0.4-1,1-1h7.9c0.6,0,1,0.4,1,1v4.5C22.4,17.7,22,18.2,21.4,18.2    z M14.5,16.2h5.9v-2.5h-5.9V16.2z"/></g><g><path class="st0" d="M34.5,18.2h-7.9c-0.6,0-1-0.4-1-1v-4.5c0-0.6,0.4-1,1-1h7.9c0.6,0,1,0.4,1,1v4.5    C35.5,17.7,35.1,18.2,34.5,18.2z M27.6,16.2h5.9v-2.5h-5.9V16.2z"/></g></g><text x="0" y="63" fill="#000000" font-size="5px" font-weight="bold" font-family="'Helvetica Neue', Helvetica, Arial-Unicode, Arial, Sans-serif">Created by Vectors Market</text><text x="0" y="68" fill="#000000" font-size="5px" font-weight="bold" font-family="'Helvetica Neue', Helvetica, Arial-Unicode, Arial, Sans-serif">from the Noun Project</text></svg>