<svg xmlns="http://www.w3.org/2000/svg" xmlns:xlink="http://www.w3.org/1999/xlink" version="1.1" x="0px" y="0px" viewBox="0 0 48 60" style="enable-background:new 0 0 48 48;" xml:space="preserve"><style type="text/css">
	.st0{fill:#221F1F;}
</style><g><g><path class="st0" d="M38.3,44.2H1.5c-0.6,0-1-0.4-1-1V14.3c0-0.6,0.4-1,1-1h36.8c0.6,0,1,0.4,1,1v28.8    C39.3,43.7,38.9,44.2,38.3,44.2z M2.5,42.2h34.8V15.3H2.5V42.2z"/></g><g><g><path class="st0" d="M16.8,22.1H6.3c-0.6,0-1-0.4-1-1s0.4-1,1-1h10.4c0.6,0,1,0.4,1,1S17.3,22.1,16.8,22.1z"/></g><g><path class="st0" d="M16.8,29.7H6.3c-0.6,0-1-0.4-1-1s0.4-1,1-1h10.4c0.6,0,1,0.4,1,1S17.3,29.7,16.8,29.7z"/></g></g><g><path class="st0" d="M33.1,37.3H6.3c-0.6,0-1-0.4-1-1s0.4-1,1-1h26.7c0.6,0,1,0.4,1,1S33.6,37.3,33.1,37.3z"/></g><g><path class="st0" d="M33.1,29.7h-9.6c-0.6,0-1-0.4-1-1v-7.6c0-0.6,0.4-1,1-1h9.6c0.6,0,1,0.4,1,1v7.6    C34.1,29.3,33.6,29.7,33.1,29.7z M24.5,27.7h7.6v-5.6h-7.6V27.7z"/></g><g><path class="st0" d="M41.7,40.4c-0.1,0-0.1,0-0.2,0l-3.4-0.6c-0.5-0.1-0.8-0.5-0.8-1V15.3H8.6c-0.3,0-0.6-0.1-0.8-0.4    c-0.2-0.2-0.3-0.5-0.2-0.8l1.6-9.5c0.1-0.5,0.6-0.9,1.2-0.8l36.3,6.1c0.3,0,0.5,0.2,0.6,0.4c0.2,0.2,0.2,0.5,0.2,0.7l-4.8,28.4    c0,0.3-0.2,0.5-0.4,0.6C42.2,40.3,42,40.4,41.7,40.4z M39.3,37.9l1.6,0.3l4.4-26.5L11,6l-1.2,7.3h28.5c0.6,0,1,0.4,1,1V37.9z"/></g></g><text x="0" y="63" fill="#000000" font-size="5px" font-weight="bold" font-family="'Helvetica Neue', Helvetica, Arial-Unicode, Arial, Sans-serif">Created by Vectors Market</text><text x="0" y="68" fill="#000000" font-size="5px" font-weight="bold" font-family="'Helvetica Neue', Helvetica, Arial-Unicode, Arial, Sans-serif">from the Noun Project</text></svg>