<svg xmlns="http://www.w3.org/2000/svg" xmlns:xlink="http://www.w3.org/1999/xlink" version="1.1" x="0px" y="0px" viewBox="0 0 48 60" style="enable-background:new 0 0 48 48;" xml:space="preserve"><style type="text/css">
	.st0{fill:#231F20;}
	.st1{fill:none;stroke:#231F20;stroke-width:2;stroke-linecap:round;stroke-linejoin:round;stroke-miterlimit:10;}
</style><g><g><path class="st0" d="M24,46.9c-8.5,0-15.4-6.9-15.4-15.4S15.5,16.1,24,16.1S39.4,23,39.4,31.5S32.5,46.9,24,46.9z M24,18.1    c-7.4,0-13.4,6-13.4,13.4s6,13.4,13.4,13.4s13.4-6,13.4-13.4S31.4,18.1,24,18.1z"/></g><g><path class="st0" d="M13.4,46.9H5.7c-0.3,0-0.7-0.2-0.8-0.5c-6.2-9.9-5.7-22.7,1.4-32c0.2-0.2,0.5-0.4,0.8-0.4h5    c0.3,0,0.6,0.1,0.8,0.4c1.2,1.6,2.3,3.4,3.1,5.2c0.2,0.4,0.1,0.9-0.3,1.2c-3.3,2.6-5.2,6.4-5.2,10.6c0,4.1,1.9,8,5.2,10.6    c0.4,0.3,0.5,0.8,0.3,1.2c-0.6,1.2-1.1,2.2-1.7,3.2C14.1,46.8,13.8,46.9,13.4,46.9z M6.2,44.9h6.6c0.3-0.6,0.7-1.2,1-1.8    c-3.4-2.9-5.3-7.1-5.3-11.6c0-4.5,1.9-8.7,5.3-11.6c-0.7-1.3-1.4-2.6-2.3-3.8h-4C1.3,24.5,0.8,36,6.2,44.9z"/></g><g><path class="st0" d="M12.1,16.1H7c-0.5,0-1-0.4-1-0.9l-0.8-9C5.1,4.9,5.5,3.5,6.4,2.5c0.8-0.9,2-1.5,3.2-1.5    c1.2,0,2.4,0.5,3.2,1.5c0.9,1,1.3,2.4,1.2,3.7l-0.8,8.9C13,15.7,12.6,16.1,12.1,16.1z M7.9,14.1h3.2l0.2-2H7.8L7.9,14.1z     M7.6,10.1h4L11.9,6c0.1-0.8-0.1-1.6-0.7-2.2c-0.9-1-2.5-1-3.4,0C7.3,4.4,7.1,5.2,7.2,6L7.6,10.1z"/></g><g><path class="st0" d="M42.3,46.9h-7.8c-0.3,0-0.7-0.2-0.8-0.5c-0.6-1-1.2-2-1.7-3.2c-0.2-0.4-0.1-0.9,0.3-1.2    c3.3-2.6,5.2-6.4,5.2-10.6c0-4.1-1.9-8-5.2-10.6c-0.4-0.3-0.5-0.8-0.3-1.2c0.9-1.9,1.9-3.6,3.1-5.2c0.2-0.2,0.5-0.4,0.8-0.4h5    c0.3,0,0.6,0.1,0.8,0.4c7.1,9.3,7.7,22.1,1.4,32C43,46.8,42.7,46.9,42.3,46.9z M35.1,44.9h6.6c5.4-8.9,4.9-20.4-1.3-28.9h-4    c-0.9,1.2-1.6,2.4-2.3,3.8c3.4,2.9,5.3,7.1,5.3,11.6c0,4.5-1.9,8.7-5.3,11.6C34.5,43.8,34.8,44.4,35.1,44.9z"/></g><g><path class="st0" d="M41,16.1h-5c-0.5,0-1-0.4-1-0.9l-0.8-9c-0.2-1.3,0.3-2.7,1.2-3.7c0.8-0.9,2-1.5,3.2-1.5    c1.2,0,2.4,0.5,3.2,1.5c0.9,1,1.3,2.4,1.2,3.7l-0.8,9C41.9,15.7,41.5,16.1,41,16.1z M36.8,14.1h3.2l0.2-2h-3.6L36.8,14.1z     M36.5,10.1h4L40.8,6c0.1-0.8-0.1-1.6-0.7-2.2c-0.9-1-2.5-1-3.4,0C36.2,4.4,36,5.2,36.1,6L36.5,10.1z"/></g><g><g><path class="st0" d="M18,25.2c-0.3,0-0.5-0.1-0.7-0.3c-0.4-0.4-0.4-1,0-1.4l0.8-0.8c0.4-0.4,1-0.4,1.4,0s0.4,1,0,1.4l-0.8,0.8     C18.5,25.1,18.3,25.2,18,25.2z"/></g><g><g><path class="st0" d="M18.9,30.2c-0.3,0-0.5-0.1-0.7-0.3c-0.4-0.4-0.4-1,0-1.4l0.8-0.8c0.4-0.4,1-0.4,1.4,0c0.4,0.4,0.4,1,0,1.4      l-0.8,0.8C19.4,30.1,19.1,30.2,18.9,30.2z"/></g><g><path class="st0" d="M23,26.1c-0.3,0-0.5-0.1-0.7-0.3c-0.4-0.4-0.4-1,0-1.4l0.8-0.8c0.4-0.4,1-0.4,1.4,0c0.4,0.4,0.4,1,0,1.4      l-0.8,0.8C23.5,26,23.3,26.1,23,26.1z"/></g></g></g></g><text x="0" y="63" fill="#000000" font-size="5px" font-weight="bold" font-family="'Helvetica Neue', Helvetica, Arial-Unicode, Arial, Sans-serif">Created by Vectors Market</text><text x="0" y="68" fill="#000000" font-size="5px" font-weight="bold" font-family="'Helvetica Neue', Helvetica, Arial-Unicode, Arial, Sans-serif">from the Noun Project</text></svg>