<svg xmlns="http://www.w3.org/2000/svg" xmlns:xlink="http://www.w3.org/1999/xlink" version="1.1" x="0px" y="0px" viewBox="0 0 48 60" style="enable-background:new 0 0 48 48;" xml:space="preserve"><style type="text/css">
	.st0{fill:#221F1F;}
	.st1{fill:#FFFFFF;}
</style><g><g><path class="st0" d="M31.8,23.8H1.5c-0.6,0-1-0.4-1-1V4.1c0-0.6,0.4-1,1-1h30.3c0.6,0,1,0.4,1,1v18.8    C32.8,23.4,32.4,23.8,31.8,23.8z M2.5,21.8h28.3V5.1H2.5V21.8z"/></g><g><path class="st0" d="M46.5,28.4H35.8c-0.6,0-1-0.4-1-1V4.1c0-0.6,0.4-1,1-1h10.7c0.6,0,1,0.4,1,1v23.3    C47.5,28,47.1,28.4,46.5,28.4z M36.8,26.4h8.7V5.1h-8.7V26.4z"/></g><g><path class="st0" d="M16.7,27.3c-0.6,0-1-0.4-1-1v-3.5c0-0.6,0.4-1,1-1s1,0.4,1,1v3.5C17.7,26.9,17.2,27.3,16.7,27.3z"/></g><g><path class="st0" d="M22.1,28.4H11.3c-0.6,0-1-0.4-1-1s0.4-1,1-1h10.8c0.6,0,1,0.4,1,1S22.6,28.4,22.1,28.4z"/></g><g><path class="st0" d="M46.5,12.6H35.8c-0.6,0-1-0.4-1-1s0.4-1,1-1h10.7c0.6,0,1,0.4,1,1S47.1,12.6,46.5,12.6z"/></g><g><path class="st0" d="M41.1,21.6c-0.6,0-1-0.4-1-1v-1.4c0-0.6,0.4-1,1-1s1,0.4,1,1v1.4C42.1,21.1,41.7,21.6,41.1,21.6z"/></g><g><path class="st0" d="M28.5,44.7H4.9c-0.6,0-1-0.4-1-1v-7.7c0-0.6,0.4-1,1-1h23.6c0.6,0,1,0.4,1,1v7.7C29.5,44.2,29,44.7,28.5,44.7    z M5.9,42.7h21.6v-5.7H5.9V42.7z"/></g><g><path class="st0" d="M41.1,44.9c-1.9,0-3.3-2-3.3-4.7s1.5-4.7,3.3-4.7s3.3,2,3.3,4.7S43,44.9,41.1,44.9z M41.1,37.6    c-0.6,0-1.3,1.2-1.3,2.7s0.7,2.7,1.3,2.7s1.3-1.2,1.3-2.7S41.8,37.6,41.1,37.6z"/></g><g><path class="st0" d="M41.1,37.6c-0.6,0-1-0.4-1-1V33h-8.3c-0.6,0-1-0.4-1-1v-6.4c0-0.6,0.4-1,1-1h3.9c0.6,0,1,0.4,1,1s-0.4,1-1,1    h-2.9V31h8.3c0.6,0,1,0.4,1,1v4.7C42.1,37.2,41.7,37.6,41.1,37.6z"/></g></g><text x="0" y="63" fill="#000000" font-size="5px" font-weight="bold" font-family="'Helvetica Neue', Helvetica, Arial-Unicode, Arial, Sans-serif">Created by Vectors Market</text><text x="0" y="68" fill="#000000" font-size="5px" font-weight="bold" font-family="'Helvetica Neue', Helvetica, Arial-Unicode, Arial, Sans-serif">from the Noun Project</text></svg>