<svg xmlns="http://www.w3.org/2000/svg" xmlns:xlink="http://www.w3.org/1999/xlink" version="1.1" x="0px" y="0px" viewBox="0 0 48 60" style="enable-background:new 0 0 48 48;" xml:space="preserve"><style type="text/css">
	.st0{fill:#221F1F;}
	.st1{fill:#FFFFFF;}
</style><g><g><g><path class="st0" d="M2.3,39.4C2.3,39.4,2.3,39.4,2.3,39.4c-0.6,0-1-0.5-1-1.1l1.1-13.8L1.3,9.7c0-0.6,0.4-1,0.9-1.1     c0.5,0,1,0.4,1.1,0.9l1.2,14.8c0,0.1,0,0.1,0,0.2L3.3,38.4C3.3,39,2.8,39.4,2.3,39.4z"/></g><g><path class="st0" d="M11.8,39.4c-0.6,0-1-0.4-1-1V25H3.5c-0.6,0-1-0.4-1-1s0.4-1,1-1h8.3c0.6,0,1,0.4,1,1v14.4     C12.8,38.9,12.3,39.4,11.8,39.4z"/></g></g><g><g><path class="st0" d="M45.7,39.4c-0.5,0-1-0.4-1-0.9l-1.2-13.9c0-0.1,0-0.1,0-0.2l1.2-14.8c0-0.6,0.5-1,1.1-0.9     c0.6,0,1,0.5,0.9,1.1l-1.1,14.8l1.1,13.8C46.7,38.8,46.3,39.3,45.7,39.4C45.7,39.4,45.7,39.4,45.7,39.4z"/></g><g><path class="st0" d="M36.2,39.4c-0.6,0-1-0.4-1-1V24c0-0.6,0.4-1,1-1h8.3c0.6,0,1,0.4,1,1s-0.4,1-1,1h-7.3v13.4     C37.2,38.9,36.8,39.4,36.2,39.4z"/></g></g></g><g><path class="st0" d="M37.7,25H10.3c-0.6,0-1-0.4-1-1s0.4-1,1-1h27.4c0.6,0,1,0.4,1,1S38.2,25,37.7,25z"/></g><g><g><path class="st0" d="M32.3,34.4c-0.6,0-1-0.4-1-1V14.6c0-0.6,0.4-1,1-1s1,0.4,1,1v18.7C33.3,33.9,32.9,34.4,32.3,34.4z"/></g><g><path class="st0" d="M15.7,34.4c-0.6,0-1-0.4-1-1V14.6c0-0.6,0.4-1,1-1s1,0.4,1,1v18.7C16.7,33.9,16.2,34.4,15.7,34.4z"/></g></g><g><path class="st0" d="M32.3,25H15.7c-0.6,0-1-0.4-1-1s0.4-1,1-1h16.7c0.6,0,1,0.4,1,1S32.9,25,32.3,25z"/></g><text x="0" y="63" fill="#000000" font-size="5px" font-weight="bold" font-family="'Helvetica Neue', Helvetica, Arial-Unicode, Arial, Sans-serif">Created by Vectors Market</text><text x="0" y="68" fill="#000000" font-size="5px" font-weight="bold" font-family="'Helvetica Neue', Helvetica, Arial-Unicode, Arial, Sans-serif">from the Noun Project</text></svg>