<svg xmlns="http://www.w3.org/2000/svg" xmlns:xlink="http://www.w3.org/1999/xlink" version="1.1" x="0px" y="0px" viewBox="0 0 48 60" style="enable-background:new 0 0 48 48;" xml:space="preserve"><style type="text/css">
	.st0{fill:#231F20;}
	.st1{fill:none;stroke:#231F20;stroke-width:2;stroke-linecap:round;stroke-linejoin:round;stroke-miterlimit:10;}
</style><g><g><g><path class="st0" d="M21.7,45.2C10,45.2,0.5,35.7,0.5,24C0.5,12.3,10,2.8,21.7,2.8c5.7,0,11,2.2,15,6.2c0.4,0.4,0.4,1,0,1.4     s-1,0.4-1.4,0c-3.6-3.6-8.4-5.6-13.6-5.6C11.1,4.8,2.5,13.4,2.5,24s8.6,19.2,19.2,19.2S40.9,34.6,40.9,24c0-0.6,0.4-1,1-1     s1,0.4,1,1C42.9,35.7,33.4,45.2,21.7,45.2z"/></g></g><g><g><path class="st0" d="M46.5,30.9c-0.3,0-0.7-0.2-0.9-0.5l-3.5-5.8l-5.4,4.2c-0.4,0.3-1.1,0.3-1.4-0.2c-0.3-0.4-0.3-1.1,0.2-1.4     l6.2-4.8c0.2-0.2,0.5-0.2,0.8-0.2c0.3,0.1,0.5,0.2,0.7,0.5l4.1,6.7c0.3,0.5,0.1,1.1-0.3,1.4C46.9,30.8,46.7,30.9,46.5,30.9z"/></g></g><g><path class="st0" d="M20.8,29.7v-5c-1.6-0.4-2.7-1.1-3.5-2c-0.7-0.9-1.1-2-1.1-3.3c0-1.3,0.4-2.4,1.2-3.3c0.8-0.9,1.9-1.4,3.3-1.5    v-1.2h1.7v1.2c1.3,0.2,2.3,0.6,3,1.3c0.8,0.7,1.2,1.7,1.4,2.9L24,19c-0.2-0.9-0.7-1.6-1.4-1.9v4.7c1.9,0.5,3.2,1.2,3.9,2    c0.7,0.8,1,1.9,1,3.2c0,1.4-0.4,2.7-1.3,3.7c-0.9,1-2.1,1.6-3.7,1.8v2.2h-1.7v-2.2c-1.4-0.2-2.5-0.7-3.4-1.5    c-0.9-0.9-1.4-2.1-1.7-3.7l3.1-0.3c0.1,0.6,0.4,1.2,0.7,1.7C20,29.1,20.4,29.5,20.8,29.7z M20.8,17.1c-0.5,0.2-0.8,0.4-1.1,0.8    c-0.3,0.4-0.4,0.8-0.4,1.3c0,0.4,0.1,0.8,0.4,1.2c0.3,0.4,0.6,0.7,1.2,0.9V17.1z M22.6,29.8c0.6-0.1,1.1-0.4,1.5-0.8    c0.4-0.4,0.6-1,0.6-1.6c0-0.5-0.2-1-0.5-1.4c-0.3-0.4-0.8-0.7-1.6-0.9V29.8z"/></g></g><text x="0" y="63" fill="#000000" font-size="5px" font-weight="bold" font-family="'Helvetica Neue', Helvetica, Arial-Unicode, Arial, Sans-serif">Created by Vectors Market</text><text x="0" y="68" fill="#000000" font-size="5px" font-weight="bold" font-family="'Helvetica Neue', Helvetica, Arial-Unicode, Arial, Sans-serif">from the Noun Project</text></svg>