<svg xmlns="http://www.w3.org/2000/svg" xmlns:xlink="http://www.w3.org/1999/xlink" version="1.1" x="0px" y="0px" viewBox="0 0 48 60" style="enable-background:new 0 0 48 48;" xml:space="preserve"><style type="text/css">
	.st0{fill:#231F20;}
</style><g><g><path class="st0" d="M24,16.4c-3.8,0-6.8-3.1-6.8-6.8s3.1-6.8,6.8-6.8s6.8,3.1,6.8,6.8S27.8,16.4,24,16.4z M24,4.8    c-2.7,0-4.8,2.2-4.8,4.8c0,2.7,2.2,4.8,4.8,4.8c2.7,0,4.8-2.2,4.8-4.8C28.8,6.9,26.7,4.8,24,4.8z"/></g><g><path class="st0" d="M33.2,45.2H14.8c-0.5,0-0.9-0.3-1-0.8l-2.7-12.8c-0.1-0.3,0-0.6,0.2-0.8c0.2-0.2,0.5-0.4,0.8-0.4h23.7    c0.3,0,0.6,0.1,0.8,0.4c0.2,0.2,0.3,0.5,0.2,0.8l-2.7,12.8C34.1,44.9,33.7,45.2,33.2,45.2z M15.6,43.2h16.8l2.3-10.8H13.4    L15.6,43.2z"/></g><g><path class="st0" d="M39.2,36.2h-4.1c-0.3,0-0.6-0.1-0.8-0.4c-0.2-0.2-0.3-0.5-0.2-0.8l0.5-2.5H13.4l0.5,2.5    c0.1,0.3,0,0.6-0.2,0.8c-0.2,0.2-0.5,0.4-0.8,0.4H8.8c-0.6,0-1-0.4-1-1C7.8,26.2,15.1,19,24,19c8.9,0,16.2,7.3,16.2,16.2    C40.2,35.7,39.7,36.2,39.2,36.2z M36.3,34.2h1.8C37.6,26.8,31.5,21,24,21S10.4,26.8,9.8,34.2h1.8l-0.5-2.5c-0.1-0.3,0-0.6,0.2-0.8    c0.2-0.2,0.5-0.4,0.8-0.4h23.7c0.3,0,0.6,0.1,0.8,0.4c0.2,0.2,0.3,0.5,0.2,0.8L36.3,34.2z"/></g><g><path class="st0" d="M46.5,45.2h-45c-0.6,0-1-0.4-1-1s0.4-1,1-1h45c0.6,0,1,0.4,1,1S47.1,45.2,46.5,45.2z"/></g></g><text x="0" y="63" fill="#000000" font-size="5px" font-weight="bold" font-family="'Helvetica Neue', Helvetica, Arial-Unicode, Arial, Sans-serif">Created by Vectors Market</text><text x="0" y="68" fill="#000000" font-size="5px" font-weight="bold" font-family="'Helvetica Neue', Helvetica, Arial-Unicode, Arial, Sans-serif">from the Noun Project</text></svg>