<svg xmlns="http://www.w3.org/2000/svg" xmlns:xlink="http://www.w3.org/1999/xlink" version="1.1" x="0px" y="0px" viewBox="0 0 48 60" style="enable-background:new 0 0 48 48;" xml:space="preserve"><style type="text/css">
	.st0{fill:#221F1F;}
</style><g><g><path class="st0" d="M38.8,47.5H9.2c-1.7,0-3-1.3-3-3v-41c0-1.7,1.3-3,3-3h29.7c1.7,0,3,1.3,3,3v41C41.8,46.2,40.5,47.5,38.8,47.5    z M9.2,2.5c-0.6,0-1,0.4-1,1v41c0,0.6,0.4,1,1,1h29.7c0.6,0,1-0.4,1-1v-41c0-0.6-0.4-1-1-1H9.2z"/></g><g><path class="st0" d="M30.4,8.6H17.6c-0.6,0-1-0.4-1-1s0.4-1,1-1h12.8c0.6,0,1,0.4,1,1S30.9,8.6,30.4,8.6z"/></g></g><text x="0" y="63" fill="#000000" font-size="5px" font-weight="bold" font-family="'Helvetica Neue', Helvetica, Arial-Unicode, Arial, Sans-serif">Created by Vectors Market</text><text x="0" y="68" fill="#000000" font-size="5px" font-weight="bold" font-family="'Helvetica Neue', Helvetica, Arial-Unicode, Arial, Sans-serif">from the Noun Project</text></svg>