<svg xmlns="http://www.w3.org/2000/svg" xmlns:xlink="http://www.w3.org/1999/xlink" version="1.1" x="0px" y="0px" viewBox="0 0 48 60" style="enable-background:new 0 0 48 48;" xml:space="preserve"><style type="text/css">
	.st0{fill:#231F20;}
</style><g><g><path class="st0" d="M42.5,43.5H5.5c-0.6,0-1-0.4-1-1v-22c0-0.6,0.4-1,1-1h36.9c0.6,0,1,0.4,1,1v22C43.5,43,43,43.5,42.5,43.5z     M6.5,41.5h34.9v-20H6.5V41.5z"/></g><g><path class="st0" d="M46.5,21.5h-45c-0.3,0-0.6-0.1-0.8-0.4c-0.2-0.2-0.3-0.6-0.2-0.9l4-14.9c0.1-0.4,0.5-0.7,1-0.7h36.9    c0.5,0,0.8,0.3,1,0.7l4,14.9c0.1,0.3,0,0.6-0.2,0.9C47.1,21.3,46.8,21.5,46.5,21.5z M2.8,19.5h42.4L41.7,6.5H6.3L2.8,19.5z"/></g><g><path class="st0" d="M30.5,43.5h-25c-0.6,0-1-0.4-1-1v-22c0-0.6,0.4-1,1-1h25c0.6,0,1,0.4,1,1v22C31.5,43,31.1,43.5,30.5,43.5z     M6.5,41.5h23v-20h-23V41.5z"/></g><g><path class="st0" d="M42.5,43.5H30.5c-0.6,0-1-0.4-1-1v-22c0-0.6,0.4-1,1-1h11.9c0.6,0,1,0.4,1,1v22C43.5,43,43,43.5,42.5,43.5z     M31.5,41.5h9.9v-20h-9.9V41.5z"/></g><g><path class="st0" d="M23.8,38.2H12.3c-0.6,0-1-0.4-1-1V25.7c0-0.6,0.4-1,1-1h11.5c0.6,0,1,0.4,1,1v11.5    C24.8,37.8,24.4,38.2,23.8,38.2z M13.3,36.2h9.5v-9.5h-9.5V36.2z"/></g><g><path class="st0" d="M33.8,33.1c-0.6,0-1-0.4-1-1v-1.3c0-0.6,0.4-1,1-1s1,0.4,1,1v1.3C34.8,32.6,34.4,33.1,33.8,33.1z"/></g><g><g><path class="st0" d="M8.3,14l1.2-0.1c0.1,0.4,0.2,0.7,0.4,0.9c0.2,0.2,0.5,0.3,0.9,0.3c0.4,0,0.7-0.1,0.9-0.2     c0.2-0.2,0.3-0.4,0.3-0.6c0-0.1,0-0.3-0.1-0.4c-0.1-0.1-0.2-0.2-0.4-0.3c-0.1,0-0.5-0.1-1-0.3C9.8,13.2,9.3,13,9,12.8     c-0.4-0.3-0.5-0.7-0.5-1.2c0-0.3,0.1-0.6,0.3-0.8c0.2-0.3,0.4-0.5,0.7-0.6C9.8,10,10.2,10,10.7,10c0.7,0,1.3,0.2,1.7,0.5     c0.4,0.3,0.6,0.8,0.6,1.3l-1.2,0.1c-0.1-0.3-0.2-0.5-0.3-0.7c-0.2-0.1-0.4-0.2-0.8-0.2c-0.3,0-0.6,0.1-0.8,0.2     c-0.1,0.1-0.2,0.2-0.2,0.4c0,0.1,0.1,0.3,0.2,0.4c0.1,0.1,0.5,0.3,1.1,0.4c0.6,0.1,1,0.3,1.3,0.4c0.3,0.1,0.5,0.3,0.7,0.6     c0.2,0.3,0.2,0.6,0.2,0.9c0,0.3-0.1,0.7-0.3,0.9c-0.2,0.3-0.5,0.5-0.8,0.7c-0.3,0.1-0.8,0.2-1.3,0.2c-0.7,0-1.3-0.2-1.7-0.5     C8.6,15.2,8.4,14.7,8.3,14z"/></g><g><path class="st0" d="M20.2,16h-1.3l-0.5-1.3H16L15.6,16h-1.3l2.3-5.9h1.3L20.2,16z M18,13.6l-0.8-2.2l-0.8,2.2H18z"/></g><g><path class="st0" d="M21.7,16v-5.8h1.2V15h3v1H21.7z"/></g><g><path class="st0" d="M27.3,13c0-0.6,0.1-1.1,0.3-1.5c0.1-0.3,0.3-0.6,0.5-0.8c0.2-0.2,0.5-0.4,0.8-0.5c0.4-0.2,0.8-0.2,1.3-0.2     c0.9,0,1.6,0.3,2.1,0.8c0.5,0.5,0.8,1.3,0.8,2.2c0,1-0.3,1.7-0.8,2.2c-0.5,0.5-1.2,0.8-2.1,0.8c-0.9,0-1.6-0.3-2.1-0.8     C27.5,14.7,27.3,14,27.3,13z M28.5,13c0,0.7,0.2,1.2,0.5,1.5c0.3,0.3,0.7,0.5,1.2,0.5c0.5,0,0.9-0.2,1.2-0.5     c0.3-0.3,0.5-0.9,0.5-1.5c0-0.7-0.1-1.2-0.4-1.5C31,11.1,30.6,11,30.1,11c-0.5,0-0.9,0.2-1.2,0.5C28.6,11.8,28.5,12.3,28.5,13z"/></g><g><path class="st0" d="M35,16v-5.9h1.2l2.4,3.9v-3.9h1.1V16h-1.2l-2.4-3.8V16H35z"/></g></g></g><text x="0" y="63" fill="#000000" font-size="5px" font-weight="bold" font-family="'Helvetica Neue', Helvetica, Arial-Unicode, Arial, Sans-serif">Created by Vectors Market</text><text x="0" y="68" fill="#000000" font-size="5px" font-weight="bold" font-family="'Helvetica Neue', Helvetica, Arial-Unicode, Arial, Sans-serif">from the Noun Project</text></svg>