<svg xmlns="http://www.w3.org/2000/svg" xmlns:xlink="http://www.w3.org/1999/xlink" version="1.1" x="0px" y="0px" viewBox="0 0 48 60" style="enable-background:new 0 0 48 48;" xml:space="preserve"><style type="text/css">
	.st0{fill:#221F1F;}
	.st1{fill:#FFFFFF;}
</style><g><g><path class="st0" d="M23.9,43.2c-0.6,0-1-0.4-1-1V5.8c0-0.6,0.4-1,1-1s1,0.4,1,1v36.3C24.9,42.7,24.4,43.2,23.9,43.2z"/></g><g><path class="st0" d="M16,34.2H5.6c-0.6,0-1-0.4-1-1V20.6c0-3.3,2.6-5.9,5.9-5.9h0.6c3.3,0,5.9,2.6,5.9,5.9v12.6    C17,33.8,16.5,34.2,16,34.2z M6.6,32.2H15V20.6c0-2.2-1.8-3.9-3.9-3.9h-0.6c-2.2,0-3.9,1.7-3.9,3.9V32.2z"/></g><g><path class="st0" d="M8.2,42.7c-0.6,0-1-0.4-1-1v-8.5c0-0.6,0.4-1,1-1s1,0.4,1,1v8.5C9.2,42.3,8.7,42.7,8.2,42.7z"/></g><g><path class="st0" d="M13.3,42.7c-0.6,0-1-0.4-1-1v-8.5c0-0.6,0.4-1,1-1s1,0.4,1,1v8.5C14.3,42.3,13.9,42.7,13.3,42.7z"/></g><g><path class="st0" d="M20.1,29.4c-0.6,0-1-0.4-1-1v-5c0-1.8-1.4-3.2-3.2-3.2c-0.6,0-1-0.4-1-1s0.4-1,1-1c2.9,0,5.2,2.3,5.2,5.2v5    C21.1,28.9,20.7,29.4,20.1,29.4z"/></g><g><path class="st0" d="M1.4,29.4c-0.6,0-1-0.4-1-1v-5c0-2.9,2.3-5.2,5.2-5.2c0.6,0,1,0.4,1,1s-0.4,1-1,1c-1.8,0-3.2,1.4-3.2,3.2v5    C2.4,28.9,1.9,29.4,1.4,29.4z"/></g><g><path class="st0" d="M10.8,14.2c-2.5,0-4.5-2-4.5-4.5s2-4.5,4.5-4.5s4.5,2,4.5,4.5S13.2,14.2,10.8,14.2z M10.8,7.3    c-1.4,0-2.5,1.1-2.5,2.5c0,1.4,1.1,2.5,2.5,2.5s2.5-1.1,2.5-2.5C13.2,8.4,12.1,7.3,10.8,7.3z"/></g><g><path class="st0" d="M42.5,34.2H32.1c-0.6,0-1-0.4-1-1V20.6c0-3.3,2.6-5.9,5.9-5.9h0.6c3.3,0,5.9,2.6,5.9,5.9v12.6    C43.5,33.8,43,34.2,42.5,34.2z M33.1,32.2h8.4V20.6c0-2.2-1.8-3.9-3.9-3.9H37c-2.2,0-3.9,1.7-3.9,3.9V32.2z"/></g><g><path class="st0" d="M34.7,42.7c-0.6,0-1-0.4-1-1v-8.5c0-0.6,0.4-1,1-1s1,0.4,1,1v8.5C35.7,42.3,35.3,42.7,34.7,42.7z"/></g><g><path class="st0" d="M39.9,42.7c-0.6,0-1-0.4-1-1v-8.5c0-0.6,0.4-1,1-1s1,0.4,1,1v8.5C40.9,42.3,40.4,42.7,39.9,42.7z"/></g><g><path class="st0" d="M46.6,29.6c-0.6,0-1-0.4-1-1v-5c0-1.8-1.4-3.2-3.2-3.2c-0.6,0-1-0.4-1-1s0.4-1,1-1c2.9,0,5.2,2.3,5.2,5.2v5    C47.6,29.2,47.2,29.6,46.6,29.6z"/></g><g><path class="st0" d="M27.9,29.4c-0.6,0-1-0.4-1-1v-5c0-2.9,2.3-5.2,5.2-5.2c0.6,0,1,0.4,1,1s-0.4,1-1,1c-1.8,0-3.2,1.4-3.2,3.2v5    C28.9,28.9,28.5,29.4,27.9,29.4z"/></g><g><path class="st0" d="M37.1,14.2c-2.5,0-4.5-2-4.5-4.5s2-4.5,4.5-4.5s4.5,2,4.5,4.5S39.6,14.2,37.1,14.2z M37.1,7.3    c-1.4,0-2.5,1.1-2.5,2.5c0,1.4,1.1,2.5,2.5,2.5s2.5-1.1,2.5-2.5C39.6,8.4,38.5,7.3,37.1,7.3z"/></g><g><path class="st0" d="M42.7,13.7c-0.3,0-0.5-0.1-0.7-0.3L39.8,11c-0.4-0.4-0.3-1,0.1-1.4c0.4-0.4,1-0.3,1.4,0.1l2.1,2.3    c0.4,0.4,0.3,1-0.1,1.4C43.1,13.6,42.9,13.7,42.7,13.7z"/></g><g><path class="st0" d="M31.5,13.7c-0.2,0-0.5-0.1-0.7-0.3c-0.4-0.4-0.4-1-0.1-1.4l2.1-2.3c0.4-0.4,1-0.4,1.4-0.1    c0.4,0.4,0.4,1,0.1,1.4l-2.1,2.3C32.1,13.6,31.8,13.7,31.5,13.7z"/></g></g><text x="0" y="63" fill="#000000" font-size="5px" font-weight="bold" font-family="'Helvetica Neue', Helvetica, Arial-Unicode, Arial, Sans-serif">Created by Vectors Market</text><text x="0" y="68" fill="#000000" font-size="5px" font-weight="bold" font-family="'Helvetica Neue', Helvetica, Arial-Unicode, Arial, Sans-serif">from the Noun Project</text></svg>