<svg xmlns="http://www.w3.org/2000/svg" xmlns:xlink="http://www.w3.org/1999/xlink" version="1.1" x="0px" y="0px" viewBox="0 0 48 60" style="enable-background:new 0 0 48 48;" xml:space="preserve"><style type="text/css">
	.st0{fill:#221F1F;}
</style><g><g><path class="st0" d="M46.5,20h-45c-0.6,0-1-0.4-1-1s0.4-1,1-1h45c0.6,0,1,0.4,1,1S47.1,20,46.5,20z"/></g><g><path class="st0" d="M43.7,16.5H27.3c-0.6,0-1-0.4-1-1c0-3.3,2.7-6.1,6.1-6.1h10.3V7.4h-6.9c-0.6,0-1-0.4-1-1s0.4-1,1-1h7.9    c0.6,0,1,0.4,1,1v9.1C44.7,16.1,44.2,16.5,43.7,16.5z M28.4,14.5h14.3v-3.1H32.3C30.4,11.5,28.8,12.8,28.4,14.5z"/></g><g><g><g><path class="st0" d="M8.6,42.6c-0.6,0-1-0.4-1-1V19c0-0.6,0.4-1,1-1s1,0.4,1,1v22.6C9.6,42.2,9.1,42.6,8.6,42.6z"/></g><g><path class="st0" d="M11.4,42.6H5.8c-0.6,0-1-0.4-1-1s0.4-1,1-1h5.6c0.6,0,1,0.4,1,1S11.9,42.6,11.4,42.6z"/></g></g><g><g><path class="st0" d="M39.4,42.6c-0.6,0-1-0.4-1-1V19c0-0.6,0.4-1,1-1s1,0.4,1,1v22.6C40.4,42.2,40,42.6,39.4,42.6z"/></g><g><path class="st0" d="M42.2,42.6h-5.6c-0.6,0-1-0.4-1-1s0.4-1,1-1h5.6c0.6,0,1,0.4,1,1S42.8,42.6,42.2,42.6z"/></g></g></g></g><text x="0" y="63" fill="#000000" font-size="5px" font-weight="bold" font-family="'Helvetica Neue', Helvetica, Arial-Unicode, Arial, Sans-serif">Created by Vectors Market</text><text x="0" y="68" fill="#000000" font-size="5px" font-weight="bold" font-family="'Helvetica Neue', Helvetica, Arial-Unicode, Arial, Sans-serif">from the Noun Project</text></svg>