<svg xmlns="http://www.w3.org/2000/svg" xmlns:xlink="http://www.w3.org/1999/xlink" version="1.1" x="0px" y="0px" viewBox="0 0 48 60" style="enable-background:new 0 0 48 48;" xml:space="preserve"><style type="text/css">
	.st0{fill:#231F20;}
	.st1{fill:none;stroke:#231F20;stroke-width:2;stroke-linecap:round;stroke-linejoin:round;stroke-miterlimit:10;}
</style><g><g><g><path class="st0" d="M45.3,44.7H2.7c-0.6,0-1-0.4-1-1V14.2c0-0.6,0.4-1,1-1h42.6c0.6,0,1,0.4,1,1v29.5     C46.3,44.2,45.8,44.7,45.3,44.7z M3.7,42.7h40.6V15.2H3.7V42.7z"/></g><g><path class="st0" d="M45.3,15.2H2.7c-0.6,0-1-0.4-1-1V6.3c0-0.6,0.4-1,1-1h42.6c0.6,0,1,0.4,1,1v7.9     C46.3,14.7,45.8,15.2,45.3,15.2z M3.7,13.2h40.6V7.3H3.7V13.2z"/></g><g><g><path class="st0" d="M37.9,38.3H10.1c-0.6,0-1-0.4-1-1V20.6c0-0.6,0.4-1,1-1h27.9c0.6,0,1,0.4,1,1v16.7      C38.9,37.8,38.5,38.3,37.9,38.3z M11.1,36.3h25.9V21.6H11.1V36.3z"/></g></g><g><g><path class="st0" d="M21.2,7.3H8.8c-0.6,0-1-0.4-1-1V1.5c0-0.6,0.4-1,1-1h12.4c0.6,0,1,0.4,1,1v4.8C22.2,6.8,21.8,7.3,21.2,7.3z       M9.8,5.3h10.4V2.5H9.8V5.3z"/></g><g><path class="st0" d="M39.2,7.3H26.8c-0.6,0-1-0.4-1-1V1.5c0-0.6,0.4-1,1-1h12.4c0.6,0,1,0.4,1,1v4.8C40.2,6.8,39.7,7.3,39.2,7.3      z M27.8,5.3h10.4V2.5H27.8V5.3z"/></g></g><g><g><path class="st0" d="M16.5,11.2h-1.7c-0.6,0-1-0.4-1-1s0.4-1,1-1h1.7c0.6,0,1,0.4,1,1S17,11.2,16.5,11.2z"/></g><g><path class="st0" d="M34,11.2h-1.7c-0.6,0-1-0.4-1-1s0.4-1,1-1H34c0.6,0,1,0.4,1,1S34.6,11.2,34,11.2z"/></g><g><path class="st0" d="M24.8,11.2h-1.7c-0.6,0-1-0.4-1-1s0.4-1,1-1h1.7c0.6,0,1,0.4,1,1S25.4,11.2,24.8,11.2z"/></g></g><g><g><path class="st0" d="M9.5,47.5c-0.6,0-1-0.4-1-1v-2.8c0-0.6,0.4-1,1-1s1,0.4,1,1v2.8C10.5,47.1,10,47.5,9.5,47.5z"/></g><g><path class="st0" d="M38.5,47.5c-0.6,0-1-0.4-1-1v-2.8c0-0.6,0.4-1,1-1s1,0.4,1,1v2.8C39.5,47.1,39.1,47.5,38.5,47.5z"/></g></g></g><g><path class="st0" d="M28.6,25.8h-9.1c-0.6,0-1-0.4-1-1s0.4-1,1-1h9.1c0.6,0,1,0.4,1,1S29.1,25.8,28.6,25.8z"/></g></g><text x="0" y="63" fill="#000000" font-size="5px" font-weight="bold" font-family="'Helvetica Neue', Helvetica, Arial-Unicode, Arial, Sans-serif">Created by Vectors Market</text><text x="0" y="68" fill="#000000" font-size="5px" font-weight="bold" font-family="'Helvetica Neue', Helvetica, Arial-Unicode, Arial, Sans-serif">from the Noun Project</text></svg>