<svg xmlns="http://www.w3.org/2000/svg" xmlns:xlink="http://www.w3.org/1999/xlink" version="1.1" x="0px" y="0px" viewBox="0 0 48 60" style="enable-background:new 0 0 48 48;" xml:space="preserve"><style type="text/css">
	.st0{fill:#231F20;}
</style><g><g><path class="st0" d="M24,47.5H3.4c-0.6,0-1-0.4-1-1V12.3c0-0.6,0.4-1,1-1H24c0.6,0,1,0.4,1,1v34.2C25,47.1,24.6,47.5,24,47.5z     M4.4,45.5H23V13.3H4.4V45.5z"/></g><g><path class="st0" d="M44.6,47.5H24c-0.6,0-1-0.4-1-1V12.3c0-0.6,0.4-1,1-1h20.6c0.6,0,1,0.4,1,1v34.2    C45.6,47.1,45.1,47.5,44.6,47.5z M25,45.5h18.6V13.3H25V45.5z"/></g><g><g><path class="st0" d="M13.7,22.4c-1.9,0-3.5-1.6-3.5-3.5s1.6-3.5,3.5-3.5s3.5,1.6,3.5,3.5S15.6,22.4,13.7,22.4z M13.7,17.4     c-0.8,0-1.5,0.7-1.5,1.5s0.7,1.5,1.5,1.5s1.5-0.7,1.5-1.5S14.5,17.4,13.7,17.4z"/></g><g><path class="st0" d="M18.4,35.5H9.1c-0.6,0-1-0.4-1-1v-6.7c0-2.2,1.8-3.9,3.9-3.9h3.5c2.2,0,3.9,1.8,3.9,3.9v6.7     C19.4,35,18.9,35.5,18.4,35.5z M10.1,33.5h7.3v-5.7c0-1.1-0.9-1.9-1.9-1.9H12c-1.1,0-1.9,0.9-1.9,1.9V33.5z"/></g><g><g><path class="st0" d="M11.6,43.3c-0.6,0-1-0.4-1-1v-7.9c0-0.6,0.4-1,1-1s1,0.4,1,1v7.9C12.6,42.9,12.1,43.3,11.6,43.3z"/></g><g><path class="st0" d="M15.8,43.3c-0.6,0-1-0.4-1-1v-7.9c0-0.6,0.4-1,1-1s1,0.4,1,1v7.9C16.8,42.9,16.4,43.3,15.8,43.3z"/></g></g></g><g><g><path class="st0" d="M34.3,22.4c-1.9,0-3.5-1.6-3.5-3.5s1.6-3.5,3.5-3.5s3.5,1.6,3.5,3.5S36.2,22.4,34.3,22.4z M34.3,17.4     c-0.8,0-1.5,0.7-1.5,1.5s0.7,1.5,1.5,1.5s1.5-0.7,1.5-1.5S35.1,17.4,34.3,17.4z"/></g><g><path class="st0" d="M38.9,35.5h-9.3c-0.6,0-1-0.4-1-1v-6.7c0-2.2,1.8-3.9,3.9-3.9H36c2.2,0,3.9,1.8,3.9,3.9v6.7     C39.9,35,39.5,35.5,38.9,35.5z M30.6,33.5h7.3v-5.7c0-1.1-0.9-1.9-1.9-1.9h-3.5c-1.1,0-1.9,0.9-1.9,1.9V33.5z"/></g><g><g><path class="st0" d="M32.2,43.3c-0.6,0-1-0.4-1-1v-7.9c0-0.6,0.4-1,1-1s1,0.4,1,1v7.9C33.2,42.9,32.7,43.3,32.2,43.3z"/></g><g><path class="st0" d="M36.4,43.3c-0.6,0-1-0.4-1-1v-7.9c0-0.6,0.4-1,1-1s1,0.4,1,1v7.9C37.4,42.9,37,43.3,36.4,43.3z"/></g></g></g><g><path class="st0" d="M18.9,8.4c-0.3,0-0.6-0.1-0.7-0.3L13.7,3L9.2,8.1c-0.4,0.4-1,0.5-1.4,0.1c-0.4-0.4-0.5-1-0.1-1.4L13,0.8    c0.2-0.2,0.5-0.3,0.7-0.3l0,0c0.3,0,0.6,0.1,0.7,0.3l5.2,5.9c0.4,0.4,0.3,1-0.1,1.4C19.4,8.3,19.2,8.4,18.9,8.4z"/></g><g><path class="st0" d="M34.3,8.4L34.3,8.4c-0.3,0-0.6-0.1-0.7-0.3l-5.2-5.9c-0.4-0.4-0.3-1,0.1-1.4c0.4-0.4,1-0.3,1.4,0.1l4.5,5.1    l4.5-5.1c0.4-0.4,1-0.5,1.4-0.1c0.4,0.4,0.5,1,0.1,1.4L35,8.1C34.9,8.3,34.6,8.4,34.3,8.4z"/></g></g><text x="0" y="63" fill="#000000" font-size="5px" font-weight="bold" font-family="'Helvetica Neue', Helvetica, Arial-Unicode, Arial, Sans-serif">Created by Vectors Market</text><text x="0" y="68" fill="#000000" font-size="5px" font-weight="bold" font-family="'Helvetica Neue', Helvetica, Arial-Unicode, Arial, Sans-serif">from the Noun Project</text></svg>