<svg xmlns="http://www.w3.org/2000/svg" xmlns:xlink="http://www.w3.org/1999/xlink" version="1.1" x="0px" y="0px" viewBox="0 0 48 60" style="enable-background:new 0 0 48 48;" xml:space="preserve"><style type="text/css">
	.st0{fill:#221F1F;}
</style><g><g><path class="st0" d="M46.5,42.7H7.4c-0.6,0-1-0.4-1-1s0.4-1,1-1h38.1V7.3H8.4v27.2c0,0.6-0.4,1-1,1s-1-0.4-1-1V6.3    c0-0.6,0.4-1,1-1h39.1c0.6,0,1,0.4,1,1v35.4C47.5,42.3,47.1,42.7,46.5,42.7z"/></g><g><path class="st0" d="M7.4,42.7H1.5c-0.6,0-1-0.4-1-1V11.9c0-0.6,0.4-1,1-1h5.9c0.6,0,1,0.4,1,1s-0.4,1-1,1H2.5v27.8h4.9    c0.6,0,1,0.4,1,1S7.9,42.7,7.4,42.7z"/></g><g><g><path class="st0" d="M42.3,26.5H30.9c-0.6,0-1-0.4-1-1V11.2c0-0.6,0.4-1,1-1h11.4c0.6,0,1,0.4,1,1v14.3     C43.3,26.1,42.9,26.5,42.3,26.5z M31.9,24.5h9.4V12.2h-9.4V24.5z"/></g><g><g><path class="st0" d="M23.1,15.5H11.4c-0.6,0-1-0.4-1-1s0.4-1,1-1h11.7c0.6,0,1,0.4,1,1S23.7,15.5,23.1,15.5z"/></g><g><path class="st0" d="M23.1,23.3H11.4c-0.6,0-1-0.4-1-1s0.4-1,1-1h11.7c0.6,0,1,0.4,1,1S23.7,23.3,23.1,23.3z"/></g></g><g><path class="st0" d="M42.4,31.2h-31c-0.6,0-1-0.4-1-1s0.4-1,1-1h31c0.6,0,1,0.4,1,1S43,31.2,42.4,31.2z"/></g><g><path class="st0" d="M42.4,37.8h-31c-0.6,0-1-0.4-1-1s0.4-1,1-1h31c0.6,0,1,0.4,1,1S43,37.8,42.4,37.8z"/></g></g></g><text x="0" y="63" fill="#000000" font-size="5px" font-weight="bold" font-family="'Helvetica Neue', Helvetica, Arial-Unicode, Arial, Sans-serif">Created by Vectors Market</text><text x="0" y="68" fill="#000000" font-size="5px" font-weight="bold" font-family="'Helvetica Neue', Helvetica, Arial-Unicode, Arial, Sans-serif">from the Noun Project</text></svg>