<svg xmlns="http://www.w3.org/2000/svg" xmlns:xlink="http://www.w3.org/1999/xlink" version="1.1" x="0px" y="0px" viewBox="0 0 48 60" style="enable-background:new 0 0 48 48;" xml:space="preserve"><style type="text/css">
	.st0{fill:#231F20;}
</style><g><g><path class="st0" d="M24,47.5C11,47.5,0.5,37,0.5,24S11,0.5,24,0.5S47.5,11,47.5,24S37,47.5,24,47.5z M24,2.5    C12.1,2.5,2.5,12.1,2.5,24S12.1,45.5,24,45.5S45.5,35.9,45.5,24S35.9,2.5,24,2.5z"/></g><g><g><path class="st0" d="M13.3,38V10h9.1c3.4,0,5.7,0.1,6.7,0.4c1.6,0.4,2.9,1.3,4,2.7s1.6,3.2,1.6,5.5c0,1.7-0.3,3.2-0.9,4.3     c-0.6,1.2-1.4,2.1-2.4,2.8c-1,0.7-1.9,1.1-2.9,1.3c-1.3,0.3-3.3,0.4-5.9,0.4h-3.7V38H13.3z M18.9,14.7v7.9H22     c2.2,0,3.7-0.1,4.5-0.4c0.8-0.3,1.3-0.8,1.8-1.4c0.4-0.6,0.6-1.3,0.6-2.2c0-1-0.3-1.9-0.9-2.5c-0.6-0.7-1.4-1.1-2.3-1.2     c-0.7-0.1-2-0.2-4.1-0.2H18.9z"/></g></g></g><text x="0" y="63" fill="#000000" font-size="5px" font-weight="bold" font-family="'Helvetica Neue', Helvetica, Arial-Unicode, Arial, Sans-serif">Created by Vectors Market</text><text x="0" y="68" fill="#000000" font-size="5px" font-weight="bold" font-family="'Helvetica Neue', Helvetica, Arial-Unicode, Arial, Sans-serif">from the Noun Project</text></svg>