<svg xmlns="http://www.w3.org/2000/svg" xmlns:xlink="http://www.w3.org/1999/xlink" version="1.1" x="0px" y="0px" viewBox="0 0 48 60" style="enable-background:new 0 0 48 48;" xml:space="preserve"><style type="text/css">
	.st0{fill:#231F20;}
	.st1{fill:none;stroke:#231F20;stroke-width:2;stroke-linecap:round;stroke-linejoin:round;stroke-miterlimit:10;}
</style><g><g><path class="st0" d="M33,36c-0.6,0-1-0.4-1-1V9.4c0-3.3,2.7-6,6-6c0.6,0,1,0.4,1,1s-0.4,1-1,1c-2.2,0-4,1.8-4,4V35    C34,35.6,33.5,36,33,36z"/></g><g><path class="st0" d="M22.3,34.1c-0.6,0-1-0.4-1-1V9.4c0-3.3,2.7-6,6-6c0.6,0,1,0.4,1,1s-0.4,1-1,1c-2.2,0-4,1.8-4,4v23.6    C23.3,33.6,22.9,34.1,22.3,34.1z"/></g><g><path class="st0" d="M33,14.2H22.3c-0.6,0-1-0.4-1-1s0.4-1,1-1H33c0.6,0,1,0.4,1,1S33.5,14.2,33,14.2z"/></g><g><path class="st0" d="M33,22.2H22.3c-0.6,0-1-0.4-1-1s0.4-1,1-1H33c0.6,0,1,0.4,1,1S33.5,22.2,33,22.2z"/></g><g><path class="st0" d="M33,30.2H22.3c-0.6,0-1-0.4-1-1s0.4-1,1-1H33c0.6,0,1,0.4,1,1S33.5,30.2,33,30.2z"/></g><g><g><path class="st0" d="M43.5,36.8c-1.3,0-2.7-0.5-3.7-1.5l-0.6-0.6c-1.2-1.2-3.3-1.2-4.5,0l-0.6,0.6c-2,2-5.3,2-7.3,0l-0.6-0.6     c-1.2-1.2-3.3-1.2-4.5,0l-0.6,0.6c-2,2-5.3,2-7.3,0l-0.6-0.6c-1.2-1.2-3.3-1.2-4.5,0l-0.6,0.6c-2,2-5.3,2-7.3,0     c-0.4-0.4-0.4-1,0-1.4s1-0.4,1.4,0c1.2,1.2,3.3,1.2,4.5,0l0.6-0.6c2-2,5.3-2,7.3,0l0.6,0.6c1.2,1.2,3.3,1.2,4.5,0l0.6-0.6     c2-2,5.3-2,7.3,0l0.6,0.6c1.2,1.2,3.3,1.2,4.5,0l0.6-0.6c2-2,5.3-2,7.3,0l0.6,0.6c1.2,1.2,3.3,1.2,4.5,0c0.4-0.4,1-0.4,1.4,0     s0.4,1,0,1.4C46.2,36.3,44.9,36.8,43.5,36.8z"/></g></g><g><g><path class="st0" d="M43.5,44.5c-1.4,0-2.7-0.5-3.7-1.5l-0.6-0.6c-1.2-1.2-3.3-1.2-4.5,0L34.2,43c-1,1-2.3,1.5-3.7,1.5     S27.8,44,26.9,43l-0.6-0.6c-1.2-1.2-3.3-1.2-4.5,0L21.1,43c-1,1-2.3,1.5-3.7,1.5S14.8,44,13.8,43l-0.6-0.6     c-1.2-1.2-3.3-1.2-4.5,0L8.1,43c-1,1-2.3,1.5-3.7,1.5S1.8,44,0.8,43c-0.4-0.4-0.4-1,0-1.4c0.4-0.4,1-0.4,1.4,0     c1.2,1.2,3.3,1.2,4.5,0L7.3,41c2-2,5.3-2,7.3,0l0.6,0.6c1.2,1.2,3.3,1.2,4.5,0l0.6-0.6c2-2,5.3-2,7.3,0l0.6,0.6     c1.2,1.2,3.3,1.2,4.5,0l0.6-0.6c2-2,5.3-2,7.3,0l0.6,0.6c1.2,1.2,3.3,1.2,4.5,0c0.4-0.4,1-0.4,1.4,0c0.4,0.4,0.4,1,0,1.4     C46.2,44,44.9,44.5,43.5,44.5z"/></g></g></g><text x="0" y="63" fill="#000000" font-size="5px" font-weight="bold" font-family="'Helvetica Neue', Helvetica, Arial-Unicode, Arial, Sans-serif">Created by Vectors Market</text><text x="0" y="68" fill="#000000" font-size="5px" font-weight="bold" font-family="'Helvetica Neue', Helvetica, Arial-Unicode, Arial, Sans-serif">from the Noun Project</text></svg>