<svg xmlns="http://www.w3.org/2000/svg" xmlns:xlink="http://www.w3.org/1999/xlink" version="1.1" x="0px" y="0px" viewBox="0 0 48 60" style="enable-background:new 0 0 48 48;" xml:space="preserve"><style type="text/css">
	.st0{fill:#221F1F;}
</style><g><g><path class="st0" d="M46.5,30.3h-45c-0.6,0-1-0.4-1-1V11.6c0-0.6,0.4-1,1-1h45c0.6,0,1,0.4,1,1v17.7    C47.5,29.8,47.1,30.3,46.5,30.3z M2.5,28.3h43V12.6h-43V28.3z"/></g><g><path class="st0" d="M46.5,37.4h-45c-0.6,0-1-0.4-1-1v-7.2c0-0.6,0.4-1,1-1h45c0.6,0,1,0.4,1,1v7.2C47.5,37,47.1,37.4,46.5,37.4z     M2.5,35.4h43v-5.2h-43V35.4z"/></g><g><g><path class="st0" d="M11.3,27c-3.6,0-6.6-3-6.6-6.6c0-3.6,3-6.6,6.6-6.6s6.6,3,6.6,6.6C17.9,24.1,14.9,27,11.3,27z M11.3,15.8     c-2.5,0-4.6,2.1-4.6,4.6S8.7,25,11.3,25s4.6-2.1,4.6-4.6S13.8,15.8,11.3,15.8z"/></g><g><path class="st0" d="M36.7,27c-3.6,0-6.6-3-6.6-6.6c0-3.6,3-6.6,6.6-6.6s6.6,3,6.6,6.6C43.3,24.1,40.4,27,36.7,27z M36.7,15.8     c-2.5,0-4.6,2.1-4.6,4.6s2.1,4.6,4.6,4.6s4.6-2.1,4.6-4.6S39.3,15.8,36.7,15.8z"/></g></g><g><path class="st0" d="M24,24.1c-2,0-3.6-1.6-3.6-3.6s1.6-3.6,3.6-3.6s3.6,1.6,3.6,3.6S26,24.1,24,24.1z M24,18.8    c-0.9,0-1.6,0.7-1.6,1.6c0,0.9,0.7,1.6,1.6,1.6s1.6-0.7,1.6-1.6C25.6,19.5,24.9,18.8,24,18.8z"/></g><g><g><path class="st0" d="M17.1,33.8h-0.3c-0.6,0-1-0.4-1-1s0.4-1,1-1h0.3c0.6,0,1,0.4,1,1S17.7,33.8,17.1,33.8z"/></g><g><path class="st0" d="M24.2,33.8h-0.3c-0.6,0-1-0.4-1-1s0.4-1,1-1h0.3c0.6,0,1,0.4,1,1S24.7,33.8,24.2,33.8z"/></g><g><path class="st0" d="M31.2,33.8h-0.3c-0.6,0-1-0.4-1-1s0.4-1,1-1h0.3c0.6,0,1,0.4,1,1S31.7,33.8,31.2,33.8z"/></g></g></g><text x="0" y="63" fill="#000000" font-size="5px" font-weight="bold" font-family="'Helvetica Neue', Helvetica, Arial-Unicode, Arial, Sans-serif">Created by Vectors Market</text><text x="0" y="68" fill="#000000" font-size="5px" font-weight="bold" font-family="'Helvetica Neue', Helvetica, Arial-Unicode, Arial, Sans-serif">from the Noun Project</text></svg>