<svg xmlns="http://www.w3.org/2000/svg" xmlns:xlink="http://www.w3.org/1999/xlink" version="1.1" x="0px" y="0px" viewBox="0 0 48 60" style="enable-background:new 0 0 48 48;" xml:space="preserve"><style type="text/css">
	.st0{fill:#221F1F;}
</style><g><g><g><g><path class="st0" d="M39.1,39.4H8.9c-0.4,0-0.7-0.2-0.9-0.5s-0.1-0.7,0.1-1c2.8-4.1,4.3-8.8,4.3-13.8v-5c0-3.2,1.3-6.2,3.6-8.4      c2.3-2.2,5.4-3.3,8.5-3.2c6.2,0.3,11,5.5,11,11.9V24c0,5,1.5,9.7,4.3,13.8c0.2,0.3,0.2,0.7,0.1,1S39.5,39.4,39.1,39.4z       M10.7,37.4h26.5c-2.4-4-3.7-8.6-3.7-13.4v-4.7c0-5.3-4-9.6-9.1-9.9c-2.6-0.1-5.2,0.8-7.1,2.6c-1.9,1.8-3,4.3-3,6.9v5      C14.4,28.8,13.2,33.4,10.7,37.4z"/></g><g><path class="st0" d="M24,43.9c-3,0-5.5-2.4-5.5-5.5c0-0.6,0.4-1,1-1s1,0.4,1,1c0,1.9,1.6,3.5,3.5,3.5s3.5-1.6,3.5-3.5      c0-0.6,0.4-1,1-1s1,0.4,1,1C29.5,41.4,27,43.9,24,43.9z"/></g><g><path class="st0" d="M24,9.5c-0.6,0-1-0.4-1-1V5.1c0-0.6,0.4-1,1-1s1,0.4,1,1v3.4C25,9,24.5,9.5,24,9.5z"/></g></g><g><path class="st0" d="M35.9,33.2H12.1c-0.6,0-1-0.4-1-1s0.4-1,1-1h23.9c0.6,0,1,0.4,1,1S36.5,33.2,35.9,33.2z"/></g></g><g><g><g><path class="st0" d="M42.6,34.5c-0.3,0-0.5-0.1-0.7-0.3c-0.4-0.4-0.4-1,0-1.4c2.3-2.3,3.6-5.5,3.6-8.8c0-3.3-1.3-6.4-3.6-8.8      c-0.4-0.4-0.4-1,0-1.4s1-0.4,1.4,0c2.7,2.7,4.2,6.4,4.2,10.2c0,3.9-1.5,7.5-4.2,10.2C43.1,34.4,42.8,34.5,42.6,34.5z"/></g><g><path class="st0" d="M39.4,31.4c-0.3,0-0.5-0.1-0.7-0.3c-0.4-0.4-0.4-1,0-1.4c1.5-1.5,2.3-3.5,2.3-5.7s-0.8-4.1-2.3-5.7      c-0.4-0.4-0.4-1,0-1.4s1-0.4,1.4,0c1.9,1.9,2.9,4.4,2.9,7.1s-1,5.2-2.9,7.1C39.9,31.3,39.7,31.4,39.4,31.4z"/></g></g><g><g><path class="st0" d="M5.4,34.5c-0.3,0-0.5-0.1-0.7-0.3c-5.6-5.6-5.6-14.8,0-20.4c0.4-0.4,1-0.4,1.4,0s0.4,1,0,1.4      c-4.8,4.8-4.8,12.7,0,17.6c0.4,0.4,0.4,1,0,1.4C5.9,34.4,5.7,34.5,5.4,34.5z"/></g><g><path class="st0" d="M8.6,31.4c-0.3,0-0.5-0.1-0.7-0.3C4,27.2,4,20.8,7.9,16.9c0.4-0.4,1-0.4,1.4,0c0.4,0.4,0.4,1,0,1.4      c-3.1,3.1-3.1,8.2,0,11.3c0.4,0.4,0.4,1,0,1.4C9.1,31.3,8.8,31.4,8.6,31.4z"/></g></g></g></g><text x="0" y="63" fill="#000000" font-size="5px" font-weight="bold" font-family="'Helvetica Neue', Helvetica, Arial-Unicode, Arial, Sans-serif">Created by Vectors Market</text><text x="0" y="68" fill="#000000" font-size="5px" font-weight="bold" font-family="'Helvetica Neue', Helvetica, Arial-Unicode, Arial, Sans-serif">from the Noun Project</text></svg>