<svg xmlns="http://www.w3.org/2000/svg" xmlns:xlink="http://www.w3.org/1999/xlink" version="1.1" x="0px" y="0px" viewBox="0 0 48 60" style="enable-background:new 0 0 48 48;" xml:space="preserve"><style type="text/css">
	.st0{fill:#231F20;}
	.st1{fill:none;stroke:#231F20;stroke-width:2;stroke-linecap:round;stroke-linejoin:round;stroke-miterlimit:10;}
</style><g><g><path class="st0" d="M45,44.8H3c-0.6,0-1-0.4-1-1V1.5c0-0.6,0.4-1,1-1h42c0.6,0,1,0.4,1,1v42.3C46,44.4,45.5,44.8,45,44.8z     M4,42.8h40V2.5H4V42.8z"/></g><g><path class="st0" d="M39.3,39.1H8.7c-0.6,0-1-0.4-1-1V7.3c0-0.6,0.4-1,1-1h30.5c0.6,0,1,0.4,1,1v30.8    C40.3,38.6,39.8,39.1,39.3,39.1z M9.7,37.1h28.5V8.3H9.7V37.1z"/></g><g><g><g><path class="st0" d="M21.1,19.4c-0.6,0-1-0.4-1-1v-2.7c0-0.6,0.4-1,1-1s1,0.4,1,1v2.7C22.1,18.9,21.6,19.4,21.1,19.4z"/></g><g><path class="st0" d="M21.1,30.7c-0.6,0-1-0.4-1-1V27c0-0.6,0.4-1,1-1s1,0.4,1,1v2.7C22.1,30.3,21.6,30.7,21.1,30.7z"/></g></g><g><path class="st0" d="M21.1,28c-2.7,0-4.9-2.2-4.9-4.9s2.2-4.9,4.9-4.9s4.9,2.2,4.9,4.9S23.8,28,21.1,28z M21.1,20.2     c-1.6,0-2.9,1.3-2.9,2.9s1.3,2.9,2.9,2.9s2.9-1.3,2.9-2.9S22.7,20.2,21.1,20.2z"/></g></g><g><path class="st0" d="M8.7,47.5c-0.6,0-1-0.4-1-1v-2.7c0-0.6,0.4-1,1-1s1,0.4,1,1v2.7C9.7,47.1,9.3,47.5,8.7,47.5z"/></g><g><path class="st0" d="M39.2,47.5c-0.6,0-1-0.4-1-1v-2.7c0-0.6,0.4-1,1-1s1,0.4,1,1v2.7C40.2,47.1,39.8,47.5,39.2,47.5z"/></g><g><path class="st0" d="M34.5,28.6c-0.6,0-1-0.4-1-1v-9.8c0-0.6,0.4-1,1-1s1,0.4,1,1v9.8C35.5,28.1,35.1,28.6,34.5,28.6z"/></g></g><text x="0" y="63" fill="#000000" font-size="5px" font-weight="bold" font-family="'Helvetica Neue', Helvetica, Arial-Unicode, Arial, Sans-serif">Created by Vectors Market</text><text x="0" y="68" fill="#000000" font-size="5px" font-weight="bold" font-family="'Helvetica Neue', Helvetica, Arial-Unicode, Arial, Sans-serif">from the Noun Project</text></svg>