<svg xmlns="http://www.w3.org/2000/svg" xmlns:xlink="http://www.w3.org/1999/xlink" version="1.1" x="0px" y="0px" viewBox="0 0 48 60" style="enable-background:new 0 0 48 48;" xml:space="preserve"><style type="text/css">
	.st0{fill:#221F1F;}
</style><g><g><g><path class="st0" d="M10.4,12.1c-3.2,0-5.8-2.6-5.8-5.8s2.6-5.8,5.8-5.8c3.2,0,5.8,2.6,5.8,5.8S13.6,12.1,10.4,12.1z M10.4,2.5     c-2.1,0-3.8,1.7-3.8,3.8c0,2.1,1.7,3.8,3.8,3.8s3.8-1.7,3.8-3.8C14.2,4.2,12.5,2.5,10.4,2.5z"/></g><g><path class="st0" d="M29,47.5h-5.4c-0.6,0-1-0.4-1-1v-10c0-0.1-0.1-0.2-0.2-0.2H6.8c-1.2,0-2.2-1-2.2-2.2V19     c0-3.2,2.6-5.8,5.8-5.8c3.2,0,5.8,2.6,5.8,5.8v10.2c0,0.1,0.1,0.2,0.2,0.2h11.4c1.2,0,2.2,1,2.2,2.2v14.9     C30,47.1,29.6,47.5,29,47.5z M24.6,45.5H28V31.6c0-0.1-0.1-0.2-0.2-0.2H16.4c-1.2,0-2.2-1-2.2-2.2V19c0-2.1-1.7-3.8-3.8-3.8     S6.6,16.9,6.6,19v15.1c0,0.1,0.1,0.2,0.2,0.2h15.6c1.2,0,2.2,1,2.2,2.2V45.5z"/></g><g><path class="st0" d="M19.9,40.2H5.6c-0.6,0-1-0.4-1-1s0.4-1,1-1h14.3c0.6,0,1,0.4,1,1S20.4,40.2,19.9,40.2z"/></g></g><g><path class="st0" d="M41.4,24.2c-0.1,0-0.3,0-0.4-0.1c-0.5-0.2-0.7-0.8-0.5-1.3c0,0,2-4.3,0-9.1c-2.3-5.7-0.1-11.1,0-11.4    c0.2-0.5,0.8-0.7,1.3-0.5c0.5,0.2,0.8,0.8,0.5,1.3c0,0-2,5,0,9.9c2.3,5.7,0.1,10.5,0,10.8C42.2,24,41.8,24.2,41.4,24.2z"/></g><g><path class="st0" d="M36.6,24.2c-0.1,0-0.3,0-0.4-0.1c-0.5-0.2-0.7-0.8-0.5-1.3c0,0,2-4.3,0-9.1c-2.3-5.7-0.1-11.1,0-11.4    c0.2-0.5,0.8-0.7,1.3-0.5c0.5,0.2,0.8,0.8,0.5,1.3c0,0-2,5,0,9.9c2.3,5.7,0.1,10.5,0,10.8C37.3,24,37,24.2,36.6,24.2z"/></g><g><path class="st0" d="M31.8,24.2c-0.1,0-0.3,0-0.4-0.1c-0.5-0.2-0.7-0.8-0.5-1.3c0,0,2-4.3,0-9.1c-2.3-5.7-0.1-11.1,0-11.4    c0.2-0.5,0.8-0.7,1.3-0.5c0.5,0.2,0.8,0.8,0.5,1.3c0,0-2,5,0,9.9c2.3,5.7,0.1,10.5,0,10.8C32.5,24,32.1,24.2,31.8,24.2z"/></g></g><text x="0" y="63" fill="#000000" font-size="5px" font-weight="bold" font-family="'Helvetica Neue', Helvetica, Arial-Unicode, Arial, Sans-serif">Created by Vectors Market</text><text x="0" y="68" fill="#000000" font-size="5px" font-weight="bold" font-family="'Helvetica Neue', Helvetica, Arial-Unicode, Arial, Sans-serif">from the Noun Project</text></svg>