<?xml version="1.0" standalone="no"?>
<!DOCTYPE svg PUBLIC "-//W3C//DTD SVG 20010904//EN"
 "http://www.w3.org/TR/2001/REC-SVG-20010904/DTD/svg10.dtd">
<svg version="1.0" xmlns="http://www.w3.org/2000/svg"
 width="704.000000pt" height="1458.000000pt" viewBox="0 0 704.000000 1458.000000"
 preserveAspectRatio="xMidYMid meet">
<metadata>
Created by potrace 1.15, written by Peter Selinger 2001-2017
</metadata>
<g transform="translate(0.000000,1458.000000) scale(0.100000,-0.100000)"
fill="#000000" stroke="none">
<path d="M3805 13294 c-142 -22 -336 -97 -461 -179 -428 -279 -622 -794 -489
-1295 187 -699 978 -1055 1631 -735 311 152 545 435 631 762 35 133 43 338 19
482 -77 458 -404 815 -861 939 -76 20 -118 24 -265 27 -96 2 -188 1 -205 -1z
m375 -568 c203 -71 374 -263 430 -482 74 -287 -67 -586 -338 -719 -92 -46
-177 -65 -288 -65 -302 0 -550 189 -630 481 -24 88 -24 263 0 343 69 230 238
394 469 457 103 27 254 21 357 -15z"/>
<path d="M3695 10819 c-352 -46 -703 -231 -938 -495 -81 -92 -173 -227 -227
-335 l-39 -76 -58 -6 c-197 -21 -446 -125 -628 -262 -67 -51 -187 -166 -238
-230 -89 -111 -179 -281 -225 -425 -62 -195 -63 -215 -60 -1056 l3 -761 30
-49 c43 -69 106 -105 193 -112 54 -3 78 0 113 15 63 28 116 77 147 137 l27 51
2 740 c3 840 1 816 87 990 72 145 180 260 325 345 42 24 145 70 158 70 2 0 4
-771 5 -1712 l3 -1713 21 -40 c26 -48 67 -90 109 -113 25 -14 71 -17 287 -20
l258 -3 2 -1022 3 -1022 28 -47 c48 -82 122 -122 227 -121 31 1 72 8 92 16 52
22 118 85 142 137 21 45 21 54 24 1053 l2 1007 400 0 399 0 3 -1012 3 -1013
23 -47 c47 -96 128 -142 247 -141 98 1 175 46 218 127 l22 41 5 1020 5 1020
260 5 c292 6 307 9 375 86 71 81 65 -76 65 1806 0 1126 3 1698 10 1698 6 0 43
-17 82 -38 193 -99 326 -246 400 -441 55 -146 55 -149 62 -951 6 -738 6 -745
28 -785 42 -80 105 -116 210 -123 64 -4 79 -1 127 22 61 30 100 70 128 133 18
41 19 76 15 820 -3 746 -4 782 -24 868 -30 130 -57 206 -119 330 -181 367
-541 637 -950 712 l-92 17 -37 76 c-215 438 -650 750 -1150 825 -111 17 -471
19 -590 4z m620 -538 c116 -31 285 -118 383 -196 118 -95 202 -199 267 -330
62 -124 90 -219 105 -350 6 -57 10 -646 10 -1607 l0 -1518 -1095 0 -1095 0 0
1564 c0 1699 -2 1628 55 1796 98 288 337 524 628 620 130 42 197 49 437 46
192 -3 237 -6 305 -25z"/>
</g>
</svg>
