<svg xmlns="http://www.w3.org/2000/svg" xmlns:xlink="http://www.w3.org/1999/xlink" version="1.1" x="0px" y="0px" viewBox="0 0 48 60" style="enable-background:new 0 0 48 48;" xml:space="preserve"><style type="text/css">
	.st0{fill:#221F1F;}
	.st1{fill:#FFFFFF;}
</style><g><g><path class="st0" d="M35.2,47.5H12.8c-0.6,0-1-0.4-1-1V23.1c0-5.7,4.6-10.3,10.3-10.3h3.7c5.7,0,10.3,4.6,10.3,10.3v23.4    C36.2,47.1,35.7,47.5,35.2,47.5z M13.8,45.5h20.3V23.1c0-4.6-3.7-8.3-8.3-8.3h-3.7c-4.6,0-8.3,3.7-8.3,8.3V45.5z"/></g><g><path class="st0" d="M28.5,14.8c-0.6,0-1-0.4-1-1v-4h-7v4c0,0.6-0.4,1-1,1s-1-0.4-1-1v-5c0-0.6,0.4-1,1-1h9c0.6,0,1,0.4,1,1v5    C29.5,14.4,29.1,14.8,28.5,14.8z"/></g><g><path class="st0" d="M24,9.8c-0.6,0-1-0.4-1-1V1.5c0-0.6,0.4-1,1-1s1,0.4,1,1v7.3C25,9.4,24.6,9.8,24,9.8z"/></g><g><path class="st0" d="M34.2,4.7c-0.2,0-0.5-0.1-0.7-0.3l-2.2-2h-13c-0.6,0-1-0.4-1-1s0.4-1,1-1h13.4c0.2,0,0.5,0.1,0.7,0.3L34.9,3    c0.4,0.4,0.5,1,0.1,1.4C34.8,4.6,34.5,4.7,34.2,4.7z"/></g></g><text x="0" y="63" fill="#000000" font-size="5px" font-weight="bold" font-family="'Helvetica Neue', Helvetica, Arial-Unicode, Arial, Sans-serif">Created by Vectors Market</text><text x="0" y="68" fill="#000000" font-size="5px" font-weight="bold" font-family="'Helvetica Neue', Helvetica, Arial-Unicode, Arial, Sans-serif">from the Noun Project</text></svg>