<svg xmlns="http://www.w3.org/2000/svg" xmlns:xlink="http://www.w3.org/1999/xlink" version="1.1" x="0px" y="0px" viewBox="0 0 48 60" style="enable-background:new 0 0 48 48;" xml:space="preserve"><style type="text/css">
	.st0{fill:#221F1F;}
	.st1{fill:#FFFFFF;}
</style><g><g><path class="st0" d="M45.8,41.4H2.2c-0.6,0-1-0.4-1-1V11.2c0-0.6,0.4-1,1-1h43.6c0.6,0,1,0.4,1,1v29.1    C46.8,40.9,46.3,41.4,45.8,41.4z M3.2,39.4h41.6V12.2H3.2V39.4z"/></g><g><path class="st0" d="M25.3,12.2c-0.3,0-0.6-0.2-0.8-0.4l-6.2-8.7C18,2.7,18.1,2,18.5,1.7c0.4-0.3,1.1-0.2,1.4,0.2l5.3,7.4L29,2.1    c0.3-0.5,0.9-0.7,1.4-0.4C30.8,1.9,31,2.5,30.8,3l-4.6,8.7C26,12,25.7,12.2,25.3,12.2C25.4,12.2,25.3,12.2,25.3,12.2z"/></g><g><g><path class="st0" d="M36,38.9c-0.6,0-1-0.4-1-1v-1.5c0-0.6,0.4-1,1-1s1,0.4,1,1v1.5C37,38.4,36.5,38.9,36,38.9z"/></g><g><path class="st0" d="M40.5,38.9c-0.6,0-1-0.4-1-1v-1.5c0-0.6,0.4-1,1-1s1,0.4,1,1v1.5C41.5,38.4,41.1,38.9,40.5,38.9z"/></g></g><g><path class="st0" d="M45.8,34.9H2.2c-0.6,0-1-0.4-1-1s0.4-1,1-1h43.6c0.6,0,1,0.4,1,1S46.3,34.9,45.8,34.9z"/></g><g><path class="st0" d="M24,46.5c-0.6,0-1-0.4-1-1v-5.1c0-0.6,0.4-1,1-1s1,0.4,1,1v5.1C25,46,24.6,46.5,24,46.5z"/></g><g><path class="st0" d="M31.2,46.5H16.8c-0.6,0-1-0.4-1-1s0.4-1,1-1h14.5c0.6,0,1,0.4,1,1S31.8,46.5,31.2,46.5z"/></g></g><text x="0" y="63" fill="#000000" font-size="5px" font-weight="bold" font-family="'Helvetica Neue', Helvetica, Arial-Unicode, Arial, Sans-serif">Created by Vectors Market</text><text x="0" y="68" fill="#000000" font-size="5px" font-weight="bold" font-family="'Helvetica Neue', Helvetica, Arial-Unicode, Arial, Sans-serif">from the Noun Project</text></svg>