<svg xmlns="http://www.w3.org/2000/svg" xmlns:xlink="http://www.w3.org/1999/xlink" version="1.1" x="0px" y="0px" viewBox="0 0 100 125" style="enable-background:new 0 0 100 100;" xml:space="preserve"><style type="text/css">
	.st0{fill-rule:evenodd;clip-rule:evenodd;}
</style><path class="st0" d="M85.5,84.9c0,1.3-1.1,2.4-2.4,2.4c-0.9,0-1.6-0.5-2-1.3l0,0L67.5,61.2h-27c-1.3,0-2.4-1.1-2.4-2.4v-9.5  c-10.5,0-18.9,8.5-18.9,18.9s8.5,18.9,18.9,18.9s18.9-8.5,18.9-18.9c0-1.3,1.1-2.4,2.4-2.4c1.3,0,2.4,1.1,2.4,2.4l0,0  C61.8,81.4,51.2,92,38.2,92c-13.1,0-23.7-10.6-23.7-23.7c0-13.1,10.6-23.7,23.7-23.7V28.1c0-1.3,1.1-2.4,2.4-2.4  c1.3,0,2.4,1.1,2.4,2.4v11.8h21.3c1.3,0,2.4,1.1,2.4,2.4c0,1.3-1.1,2.4-2.4,2.4H42.9v11.8h26.1c0.9,0,1.6,0.5,2,1.3l0,0l14.2,26.1  l0,0C85.4,84.1,85.5,84.5,85.5,84.9z M40.5,20.9c-5.2,0-9.5-4.2-9.5-9.5S35.3,2,40.5,2S50,6.2,50,11.5S45.8,20.9,40.5,20.9z   M40.5,6.7c-2.6,0-4.7,2.1-4.7,4.7c0,2.6,2.1,4.7,4.7,4.7c2.6,0,4.7-2.1,4.7-4.7C45.3,8.9,43.1,6.7,40.5,6.7z"/><text x="0" y="115" fill="#000000" font-size="5px" font-weight="bold" font-family="'Helvetica Neue', Helvetica, Arial-Unicode, Arial, Sans-serif">Created by Yoshi</text><text x="0" y="120" fill="#000000" font-size="5px" font-weight="bold" font-family="'Helvetica Neue', Helvetica, Arial-Unicode, Arial, Sans-serif">from the Noun Project</text></svg>