<svg xmlns="http://www.w3.org/2000/svg" xmlns:xlink="http://www.w3.org/1999/xlink" version="1.1" x="0px" y="0px" viewBox="0 0 48 60" style="enable-background:new 0 0 48 48;" xml:space="preserve"><style type="text/css">
	.st0{fill:#231F20;}
	.st1{fill:none;stroke:#231F20;stroke-width:2;stroke-linecap:round;stroke-linejoin:round;stroke-miterlimit:10;}
</style><g><g><g><path class="st0" d="M1.5,16.6c-0.3,0-0.5-0.1-0.7-0.3c-0.4-0.4-0.4-1,0-1.4C7,8.7,15.2,5.3,24,5.3c8.8,0,17,3.4,23.2,9.6     c0.4,0.4,0.4,1,0,1.4c-0.4,0.4-1,0.4-1.4,0c-5.8-5.8-13.6-9-21.8-9c-8.2,0-16,3.2-21.8,9C2,16.5,1.8,16.6,1.5,16.6z"/></g><g><path class="st0" d="M39.8,23.4c-0.3,0-0.5-0.1-0.7-0.3c-4-4-9.4-6.2-15.1-6.2c-5.7,0-11,2.2-15.1,6.2c-0.4,0.4-1,0.4-1.4,0     s-0.4-1,0-1.4c4.4-4.4,10.3-6.8,16.5-6.8c6.2,0,12.1,2.4,16.5,6.8c0.4,0.4,0.4,1,0,1.4C40.3,23.3,40,23.4,39.8,23.4z"/></g><g><path class="st0" d="M33.6,29.5c-0.3,0-0.5-0.1-0.7-0.3c-4.9-4.9-12.9-4.9-17.9,0c-0.4,0.4-1,0.4-1.4,0s-0.4-1,0-1.4     c5.7-5.7,15-5.7,20.7,0c0.4,0.4,0.4,1,0,1.4C34.2,29.4,33.9,29.5,33.6,29.5z"/></g></g><g><path class="st0" d="M24,42.7c-2.4,0-4.4-2-4.4-4.4s2-4.4,4.4-4.4c2.4,0,4.4,2,4.4,4.4S26.4,42.7,24,42.7z M24,35.9    c-1.3,0-2.4,1.1-2.4,2.4s1.1,2.4,2.4,2.4s2.4-1.1,2.4-2.4S25.3,35.9,24,35.9z"/></g></g><text x="0" y="63" fill="#000000" font-size="5px" font-weight="bold" font-family="'Helvetica Neue', Helvetica, Arial-Unicode, Arial, Sans-serif">Created by Vectors Market</text><text x="0" y="68" fill="#000000" font-size="5px" font-weight="bold" font-family="'Helvetica Neue', Helvetica, Arial-Unicode, Arial, Sans-serif">from the Noun Project</text></svg>